<svg width="346" height="75" viewBox="0 0 346 75" fill="none" xmlns="http://www.w3.org/2000/svg">
<g clip-path="url(#clip0_22_1167)">
<path d="M0 37.5C0 16.7893 16.7893 0 37.5 0H75V37.5C75 58.2107 58.2107 75 37.5 75V75C16.7893 75 0 58.2107 0 37.5V37.5Z" fill="#FEC900"/>
<path d="M83.8001 55.7201L75.0301 31.6301L40.6301 44.1501V19.7001C40.6777 18.0057 40.3851 16.3189 39.7695 14.7394C39.1539 13.16 38.2279 11.7201 37.0462 10.5047C35.8645 9.28938 34.4512 8.3233 32.8897 7.66363C31.3282 7.00395 29.6502 6.66406 27.9551 6.66406C26.26 6.66406 24.5821 7.00395 23.0206 7.66363C21.4591 8.3233 20.0457 9.28938 18.864 10.5047C17.6823 11.7201 16.7563 13.16 16.1407 14.7394C15.5251 16.3189 15.2325 18.0057 15.2801 19.7001V44.1501L-19.1199 31.6301L-27.8899 55.7201L7.11011 68.4701L-14.2399 96.8001L6.24011 112.23L27.9501 83.4201L49.6901 112.23L70.1501 96.8001L48.7901 68.4701L83.8001 55.7201Z" fill="#FCCB6C"/>
<path d="M27.95 6.87C31.3283 6.90428 34.5563 8.27176 36.9312 10.6747C39.306 13.0777 40.6354 16.3215 40.63 19.7V44.15L75.03 31.63L83.8 55.72L48.79 68.47L70.15 96.8L49.69 112.23L27.95 83.42L6.24 112.23L-14.24 96.8L7.12 68.47L-27.88 55.72L-19.11 31.63L15.29 44.15V19.7C15.2845 16.3249 16.6112 13.0841 18.9817 10.6817C21.3523 8.2793 24.5752 6.90952 27.95 6.87V6.87ZM27.95 6C24.3476 6.05243 20.9099 7.51767 18.3774 10.0801C15.8449 12.6426 14.4201 16.0972 14.41 19.7V42.92L-18.83 30.87L-19.64 30.57L-19.94 31.39L-28.7 55.48L-29 56.29L-28.19 56.59L5.69 68.87L-14.96 96.27L-15.48 96.96L-14.79 97.48L5.69 112.92L6.38 113.44L6.9 112.75L27.9 84.85L48.9 112.75L49.42 113.44L50.11 112.92L70.69 97.49L71.38 96.97L70.86 96.28L50.19 68.87L84.1 56.54L84.91 56.24L84.61 55.43L75.85 31.34L75.55 30.52L74.74 30.82L41.5 42.92V19.7C41.4847 16.1007 40.0576 12.6512 37.5256 10.093C34.9936 7.53484 31.5589 6.07236 27.96 6.02L27.95 6Z" fill="#3E3D40"/>
<path d="M71.5801 60.1701L62.8101 36.0801L40.6301 44.1501H15.2801L-6.89992 36.0801L-15.6699 60.1701L7.12008 68.4701L-6.48992 86.5201L13.9901 101.95L27.9601 83.4201L41.9201 101.95L62.4001 86.5201L48.7901 68.4701L71.5801 60.1701Z" fill="white"/>
<path d="M62.81 36.08L71.58 60.17L48.79 68.47L62.4 86.52L41.92 101.95L27.92 83.42L13.92 101.95L-6.49003 86.52L7.11997 68.47L-15.67 60.17L-6.90003 36.08L15.28 44.15H40.63L62.81 36.08V36.08ZM63.33 34.97L62.51 35.27L40.51 43.27H15.51L-6.49003 35.27L-7.31003 34.97L-7.60003 35.78L-16.48 59.87L-16.78 60.68L-15.96 60.98L5.68997 68.87L-7.18003 86L-7.70003 86.69L-7.01003 87.21L13.47 102.64L14.16 103.16L14.68 102.47L27.95 84.87L41.23 102.47L41.75 103.16L42.44 102.64L62.92 87.21L63.61 86.69L63.09 86L50.19 68.87L71.87 60.98L72.69 60.68L72.39 59.87L63.62 35.77L63.33 34.96V34.97Z" fill="#3E3D40"/>
<path d="M24.58 43.29H15.28V23.54H24.59C24.59 23.54 21.69 28.66 21.69 33.41C21.8351 36.8895 22.8272 40.2809 24.58 43.29V43.29Z" fill="#F6A400"/>
<path d="M47.3499 19.7001H40.6299C40.6775 18.0057 40.3849 16.3189 39.7693 14.7394C39.1537 13.16 38.2277 11.7201 37.046 10.5047C35.8643 9.28938 34.451 8.3233 32.8895 7.66363C31.328 7.00395 29.65 6.66406 27.9549 6.66406C26.2598 6.66406 24.5819 7.00395 23.0203 7.66363C21.4588 8.3233 20.0455 9.28938 18.8638 10.5047C17.6821 11.7201 16.7561 13.16 16.1405 14.7394C15.5249 16.3189 15.2323 18.0057 15.2799 19.7001V23.5401H47.3499C47.8591 23.5401 48.3475 23.3378 48.7076 22.9778C49.0676 22.6177 49.2699 22.1293 49.2699 21.6201C49.2699 21.1109 49.0676 20.6225 48.7076 20.2625C48.3475 19.9024 47.8591 19.7001 47.3499 19.7001V19.7001Z" fill="#1187C5"/>
<path d="M27.9499 6.87C31.3282 6.90428 34.5562 8.27176 36.9311 10.6747C39.3059 13.0777 40.6354 16.3215 40.6299 19.7H47.3499C47.8591 19.7 48.3475 19.9023 48.7076 20.2624C49.0676 20.6224 49.2699 21.1108 49.2699 21.62C49.2699 22.1292 49.0676 22.6176 48.7076 22.9776C48.3475 23.3377 47.8591 23.54 47.3499 23.54H15.2799V19.7C15.2744 16.3232 16.6025 13.0809 18.9752 10.6782C21.3479 8.27554 24.5733 6.9069 27.9499 6.87V6.87ZM27.9499 6C24.3475 6.05243 20.9098 7.51767 18.3773 10.0801C15.8448 12.6426 14.42 16.0972 14.4099 19.7V24.4H47.3499C48.0872 24.4 48.7943 24.1071 49.3157 23.5858C49.837 23.0644 50.1299 22.3573 50.1299 21.62C50.1299 20.8827 49.837 20.1756 49.3157 19.6542C48.7943 19.1329 48.0872 18.84 47.3499 18.84H41.4699C41.2392 15.3971 39.7215 12.167 37.2184 9.79172C34.7154 7.41649 31.4102 6.07004 27.9599 6.02L27.9499 6Z" fill="#3E3D40"/>
<path d="M24.74 9.32994C25.3725 8.44599 26.1114 7.64329 26.94 6.93994C23.7578 7.23386 20.7999 8.7048 18.6451 11.0649C16.4903 13.4249 15.2939 16.5042 15.29 19.6999V23.5399H24.6C23.2194 21.4216 22.4961 18.9422 22.521 16.4138C22.5459 13.8853 23.3179 11.4207 24.74 9.32994V9.32994Z" fill="#006198"/>
<path opacity="0.9" d="M22.8701 9.14014C22.8701 9.14014 18.5001 10.7301 16.8201 16.5701C16.4098 18.4101 16.2616 20.2987 16.3801 22.1801H17.9801C17.9801 22.1801 17.6001 17.1801 18.8101 14.4501C19.856 12.4649 21.2285 10.6699 22.8701 9.14014V9.14014Z" fill="white"/>
<path d="M48.79 68.4702V41.1802L45.69 42.3102V54.7902L10.39 54.5902V42.3702L7.12001 41.1802V68.4702L-6.48999 86.5202L13.99 101.95L27.96 83.4202L41.92 101.95L62.4 86.5202L48.79 68.4702Z" fill="#1187C5"/>
<path d="M48.79 41.1799V68.4699L62.4 86.5199L41.92 101.95L27.92 83.4199L13.92 101.95L-6.48995 86.5199L7.12005 68.4699V41.1799L10.38 42.3699V54.5899L45.68 54.7999V42.3099L48.79 41.1799V41.1799ZM6.25005 39.9399V68.1799L-7.17995 85.9999L-7.69995 86.6899L-7.00995 87.2099L13.47 102.64L14.16 103.16L14.68 102.47L27.9501 84.8699L41.23 102.47L41.75 103.16L42.44 102.64L62.9201 87.2099L63.61 86.6899L63.09 85.9999L49.69 68.1799V39.9399L48.53 40.3699L45.39 41.4999L44.82 41.7099V53.9199L11.25 53.7199V41.7199L10.68 41.5199L7.41005 40.3699L6.25005 39.9399V39.9399Z" fill="#3E3D40"/>
<path d="M-12.8099 52.3198L6.25008 59.2498V68.1498L-15.6699 60.1698L-12.8099 52.3198Z" fill="#D9DADB"/>
<path d="M68.7199 52.3198L49.6599 59.2498V68.1498L71.5799 60.1698L68.7199 52.3198Z" fill="#D9DADB"/>
<path d="M80.9447 47.8679L69.5369 52.02L72.3962 59.8759L83.804 55.7237L80.9447 47.8679Z" fill="#F6A400"/>
<path d="M7.12012 59.5698L8.99012 60.2498C9.34284 60.4076 9.65834 60.638 9.91607 60.9259C10.1738 61.2138 10.368 61.5528 10.4859 61.9207C10.6038 62.2887 10.6429 62.6774 10.6006 63.0615C10.5582 63.4455 10.4354 63.8164 10.2401 64.1498L7.12012 68.4698V59.5698Z" fill="#006198"/>
<path d="M48.79 59.5698L46.92 60.2498C46.569 60.4095 46.2555 60.6413 45.9999 60.93C45.7442 61.2187 45.5522 61.558 45.4362 61.9258C45.3202 62.2936 45.2828 62.6817 45.3266 63.0648C45.3703 63.448 45.4941 63.8176 45.69 64.1498L48.79 68.4698V59.5698Z" fill="#006198"/>
<path d="M42.6901 33.0799C42.3652 33.0714 42.0421 33.1301 41.741 33.2522C41.4398 33.3744 41.1672 33.5575 40.9401 33.7899V33.7899C40.3809 34.4151 39.6969 34.9161 38.9321 35.2606C38.1673 35.6051 37.3388 35.7854 36.5001 35.7899C36.0144 35.7917 35.5304 35.7312 35.0601 35.6099C34.9905 35.588 34.9154 35.5922 34.8487 35.6216C34.782 35.6511 34.7283 35.7038 34.6977 35.77C34.667 35.8362 34.6616 35.9112 34.6822 35.9812C34.7029 36.0511 34.7484 36.1111 34.8101 36.1499C36.6481 37.4073 38.8231 38.0801 41.0501 38.0799C41.9773 38.1598 42.9101 38.0157 43.7701 37.6599C44.264 37.4214 44.6618 37.0215 44.8977 36.5264C45.1337 36.0312 45.1936 35.4704 45.0677 34.9366C44.9419 34.4027 44.6376 33.9278 44.2053 33.5902C43.773 33.2526 43.2385 33.0726 42.6901 33.0799V33.0799Z" fill="#3E3D40"/>
<path d="M30.2399 75.4598C29.9785 75.0984 29.6351 74.8042 29.2379 74.6012C28.8407 74.3983 28.401 74.2925 27.9549 74.2925C27.5089 74.2925 27.0692 74.3983 26.672 74.6012C26.2747 74.8042 25.9313 75.0984 25.6699 75.4598V75.4598L8.66992 97.9598L13.9599 101.96L27.9599 83.4298L41.9599 101.96L47.2599 97.9598L30.2399 75.4598Z" fill="#006198"/>
<path d="M15.8899 59.5698C15.8899 62.7683 17.1605 65.8358 19.4222 68.0975C21.6839 70.3592 24.7514 71.6298 27.9499 71.6298C31.1484 71.6298 34.2159 70.3592 36.4776 68.0975C38.7393 65.8358 40.0099 62.7683 40.0099 59.5698H15.8899Z" fill="#1187C5"/>
<path d="M40.02 59.5702C40.02 62.7687 38.7494 65.8362 36.4877 68.0979C34.226 70.3596 31.1585 71.6302 27.96 71.6302C24.7615 71.6302 21.694 70.3596 19.4323 68.0979C17.1706 65.8362 15.9 62.7687 15.9 59.5702H40.02ZM40.88 58.7002H15.03V59.6102C15.1237 62.9759 16.5265 66.1723 18.9402 68.5198C21.3539 70.8673 24.588 72.1806 27.955 72.1806C31.322 72.1806 34.5562 70.8673 36.9699 68.5198C39.3836 66.1723 40.7864 62.9759 40.88 59.6102V59.6102V58.7002Z" fill="#3E3D40"/>
<path d="M27.9599 67.4101C25.414 67.3834 22.9282 66.633 20.7927 65.2466C18.6573 63.8601 16.9603 61.8948 15.8999 59.5801C15.8999 62.7786 17.1705 65.8461 19.4322 68.1078C21.6939 70.3695 24.7614 71.6401 27.9599 71.6401C31.1584 71.6401 34.2259 70.3695 36.4876 68.1078C38.7493 65.8461 40.0199 62.7786 40.0199 59.5801C38.9566 61.8926 37.2589 63.8559 35.1241 65.2419C32.9893 66.628 30.505 67.3798 27.9599 67.4101V67.4101Z" fill="#006198"/>
<path d="M27.9599 67.4101C30.505 67.3798 32.9893 66.628 35.1241 65.2419C37.2589 63.8559 38.9566 61.8926 40.0199 59.5801H15.8999C16.9603 61.8948 18.6573 63.8601 20.7927 65.2466C22.9282 66.633 25.414 67.3834 27.9599 67.4101V67.4101Z" fill="#1187C5"/>
<path d="M40.6301 29.4199C40.99 29.4199 41.3419 29.5267 41.6412 29.7266C41.9405 29.9266 42.1738 30.2109 42.3115 30.5434C42.4493 30.876 42.4853 31.2419 42.4151 31.595C42.3449 31.948 42.1715 32.2723 41.917 32.5269C41.6625 32.7814 41.3382 32.9547 40.9851 33.025C40.6321 33.0952 40.2661 33.0591 39.9336 32.9214C39.601 32.7836 39.3168 32.5504 39.1168 32.2511C38.9168 31.9518 38.8101 31.5999 38.8101 31.2399" fill="#FCCB6C"/>
<path d="M40.6299 33.4898C40.0331 33.4898 39.4609 33.2527 39.0389 32.8308C38.6169 32.4088 38.3799 31.8365 38.3799 31.2398H39.2399C39.2359 31.5155 39.3141 31.7862 39.4644 32.0174C39.6147 32.2486 39.8303 32.4298 40.084 32.5381C40.3376 32.6464 40.6177 32.6768 40.8886 32.6255C41.1595 32.5741 41.4091 32.4433 41.6055 32.2497C41.8019 32.0562 41.9363 31.8085 41.9915 31.5384C42.0468 31.2682 42.0205 30.9877 41.9159 30.7326C41.8113 30.4774 41.6332 30.2591 41.4042 30.1055C41.1752 29.9518 40.9056 29.8698 40.6299 29.8698V29.0098C41.2266 29.0098 41.7989 29.2468 42.2209 29.6688C42.6428 30.0907 42.8799 30.663 42.8799 31.2598C42.8799 31.8565 42.6428 32.4288 42.2209 32.8508C41.7989 33.2727 41.2266 33.5098 40.6299 33.5098V33.4898Z" fill="#3E3D40"/>
<path d="M33.6101 28.18C33.8608 27.9421 34.156 27.756 34.4787 27.6323C34.8014 27.5086 35.1454 27.4497 35.4908 27.459C35.8363 27.4682 36.1766 27.5455 36.4922 27.6864C36.8078 27.8273 37.0925 28.029 37.3301 28.28" fill="#FCCB6C"/>
<path d="M37.0201 28.5701C36.6156 28.1518 36.0631 27.9091 35.4814 27.8942C34.8998 27.8792 34.3355 28.0932 33.9101 28.4901L33.3201 27.8701C33.6112 27.5936 33.9541 27.3773 34.3291 27.2336C34.704 27.09 35.1036 27.0218 35.505 27.0329C35.9064 27.0441 36.3016 27.1344 36.668 27.2986C37.0344 27.4629 37.3647 27.6978 37.6401 27.9901L37.0201 28.5701Z" fill="#3E3D40"/>
<path d="M36.8999 38.21C37.4023 38.8475 38.1367 39.2601 38.9426 39.3575C39.7484 39.455 40.56 39.2293 41.1999 38.73" fill="#FCCB6C"/>
<path d="M39.3101 39.8099C38.78 39.8101 38.2569 39.6895 37.7804 39.4573C37.3039 39.2251 36.8866 38.8875 36.5601 38.4699L37.2401 37.9399C37.6715 38.4864 38.3013 38.8402 38.9924 38.9245C39.6835 39.0088 40.3799 38.8166 40.9301 38.3899L41.4701 39.0699C40.8534 39.5518 40.0927 39.8124 39.3101 39.8099Z" fill="#3E3D40"/>
<path d="M41.4499 36.0302C42.1429 35.9284 42.8051 35.6758 43.3899 35.2902C43.5285 35.1966 43.6414 35.0698 43.7182 34.9213C43.7951 34.7728 43.8335 34.6074 43.8299 34.4402C43.828 34.2892 43.792 34.1406 43.7244 34.0055C43.6569 33.8704 43.5596 33.7523 43.4399 33.6602C43.2701 33.5461 43.0776 33.4701 42.8757 33.4373C42.6738 33.4045 42.4671 33.4157 42.2699 33.4702C41.882 33.5719 41.5336 33.788 41.2699 34.0902C40.2187 35.1996 38.7936 35.8801 37.2699 36.0002C37.1568 36.0104 37.043 36.0104 36.9299 36.0002H36.9999C38.471 36.261 39.9755 36.2712 41.4499 36.0302V36.0302Z" fill="#404040"/>
</g>
<path d="M117.37 9.73535V31.3354H120.22V41.4554H115V36.3554H100.26V41.4554H95V31.3354H97.59C99.05 29.3354 99.79 26.3354 99.79 22.3354V9.73535H117.37ZM103.22 31.3354H112.12V14.6354H105.05V22.3954C105.05 26.2754 104.44 29.2554 103.22 31.3354Z" fill="#3E3D40"/>
<path d="M138.93 33.9952C137.534 35.4406 135.734 36.4317 133.766 36.8393C131.798 37.2469 129.753 37.0521 127.898 36.2803C126.042 35.5085 124.462 34.1955 123.364 32.5124C122.265 30.8294 121.699 28.8545 121.74 26.8452C121.74 24.1771 122.8 21.6183 124.687 19.7317C126.573 17.845 129.132 16.7852 131.8 16.7852C134.468 16.7852 137.027 17.845 138.914 19.7317C140.8 21.6183 141.86 24.1771 141.86 26.8452C141.885 28.1738 141.638 29.4935 141.134 30.7231C140.631 31.9528 139.88 33.0663 138.93 33.9952ZM128.09 30.6152C129.084 31.5651 130.405 32.0952 131.78 32.0952C133.155 32.0952 134.476 31.5651 135.47 30.6152C135.97 30.125 136.363 29.5375 136.626 28.889C136.89 28.2405 137.017 27.5448 137 26.8452C137.024 26.1504 136.905 25.4582 136.651 24.8113C136.396 24.1645 136.011 23.5769 135.52 23.0852C134.53 22.1283 133.207 21.5935 131.83 21.5935C130.453 21.5935 129.13 22.1283 128.14 23.0852C127.212 24.1198 126.699 25.4605 126.699 26.8502C126.699 28.2398 127.212 29.5805 128.14 30.6152H128.09Z" fill="#3E3D40"/>
<path d="M154.33 36.8851C152.985 36.9394 151.643 36.7101 150.393 36.2122C149.142 35.7143 148.01 34.959 147.07 33.9951C146.153 33.0117 145.44 31.8573 144.969 30.5978C144.499 29.3384 144.282 27.9986 144.33 26.6551C144.194 24.0775 144.692 21.5059 145.78 19.1651C146.713 17.3851 148.65 15.7751 151.59 14.3351L152.03 14.1051L152.72 13.8051L153.42 13.4951L155.02 12.6951C155.44 12.5 155.845 12.2726 156.23 12.0151C156.774 11.7191 157.253 11.318 157.64 10.8351C158.037 10.2655 158.372 9.65544 158.64 9.01514L162.64 11.3351C162.372 12.7767 161.573 14.065 160.4 14.9451C158.787 16.0165 157.047 16.8832 155.22 17.5251C153.966 17.9611 152.788 18.5922 151.73 19.3951C150.982 20.0045 150.415 20.8067 150.09 21.7151C150.838 20.9761 151.733 20.4014 152.716 20.0278C153.699 19.6541 154.75 19.4897 155.8 19.5451C156.885 19.558 157.957 19.7863 158.954 20.2168C159.951 20.6472 160.852 21.2712 161.605 22.0526C162.359 22.834 162.949 23.7573 163.343 24.7688C163.737 25.7803 163.927 26.86 163.9 27.9451C163.939 29.1452 163.72 30.3397 163.26 31.4487C162.799 32.5576 162.107 33.5553 161.23 34.3751C159.353 36.093 156.872 36.9958 154.33 36.8851ZM154.26 23.4551C153.04 23.4368 151.853 23.8514 150.91 24.6251C150.446 25.0088 150.075 25.4922 149.824 26.0394C149.573 26.5865 149.448 27.1833 149.46 27.7851C149.44 28.4025 149.552 29.017 149.788 29.5877C150.025 30.1584 150.38 30.6723 150.83 31.0951C151.776 31.9509 153.014 32.4124 154.29 32.3851C154.91 32.4118 155.528 32.3151 156.11 32.1005C156.692 31.8859 157.226 31.5577 157.68 31.1351C158.117 30.7271 158.461 30.2305 158.69 29.6787C158.92 29.1269 159.029 28.5324 159.01 27.9351C159.027 27.3366 158.917 26.7412 158.688 26.188C158.459 25.6348 158.115 25.1363 157.68 24.7251C157.222 24.2985 156.684 23.9667 156.097 23.7487C155.51 23.5308 154.886 23.431 154.26 23.4551Z" fill="#3E3D40"/>
<path d="M178 16.8053C179.237 16.7934 180.462 17.0491 181.591 17.5548C182.72 18.0605 183.726 18.8043 184.54 19.7353C186.356 21.6508 187.341 24.2066 187.28 26.8453C187.316 28.1586 187.092 29.4661 186.622 30.6929C186.151 31.9198 185.444 33.0419 184.54 33.9953C183.723 34.9205 182.716 35.6579 181.587 36.1568C180.458 36.6556 179.234 36.9042 178 36.8853C176.826 36.9477 175.654 36.7278 174.582 36.2441C173.51 35.7605 172.57 35.027 171.84 34.1053V43.9553H166.93V17.3353H171.84V19.5853C172.57 18.6635 173.51 17.9301 174.582 17.4464C175.654 16.9628 176.826 16.7429 178 16.8053ZM173.32 30.7253C174.343 31.6763 175.688 32.2049 177.085 32.2049C178.482 32.2049 179.827 31.6763 180.85 30.7253C181.354 30.2158 181.749 29.609 182.01 28.9419C182.271 28.2748 182.394 27.5614 182.37 26.8453C182.396 26.1349 182.274 25.4269 182.013 24.7659C181.751 24.105 181.355 23.5055 180.85 23.0053C179.84 22.0295 178.49 21.4842 177.085 21.4842C175.68 21.4842 174.331 22.0295 173.32 23.0053C172.825 23.5106 172.438 24.112 172.183 24.7723C171.929 25.4327 171.812 26.1381 171.84 26.8453C171.807 27.5547 171.917 28.2635 172.163 28.9299C172.408 29.5963 172.785 30.2067 173.27 30.7253H173.32Z" fill="#3E3D40"/>
<path d="M206.89 33.9949C205.494 35.4403 203.694 36.4314 201.726 36.8391C199.758 37.2467 197.713 37.0519 195.858 36.2801C194.002 35.5082 192.422 34.1952 191.324 32.5122C190.225 30.8292 189.659 28.8542 189.7 26.8449C189.658 25.4978 189.886 24.1559 190.372 22.8988C190.859 21.6418 191.592 20.4952 192.53 19.5273C193.468 18.5594 194.591 17.7898 195.832 17.2642C197.073 16.7386 198.407 16.4678 199.755 16.4678C201.103 16.4678 202.437 16.7386 203.678 17.2642C204.919 17.7898 206.042 18.5594 206.98 19.5273C207.918 20.4952 208.652 21.6418 209.138 22.8988C209.624 24.1559 209.853 25.4978 209.81 26.8449C209.837 28.1729 209.592 29.4924 209.09 30.722C208.588 31.9517 207.839 33.0655 206.89 33.9949ZM196.05 30.6149C197.044 31.5648 198.365 32.0949 199.74 32.0949C201.115 32.0949 202.436 31.5648 203.43 30.6149C203.919 30.1192 204.302 29.5295 204.556 28.8815C204.811 28.2335 204.931 27.5407 204.91 26.8449C204.932 26.1505 204.812 25.4589 204.558 24.8124C204.303 24.1659 203.919 23.5781 203.43 23.0849C202.44 22.1281 201.117 21.5933 199.74 21.5933C198.363 21.5933 197.04 22.1281 196.05 23.0849C195.571 23.584 195.196 24.1735 194.947 24.819C194.698 25.4646 194.58 26.1533 194.6 26.8449C194.581 27.5379 194.699 28.2279 194.948 28.8749C195.197 29.522 195.571 30.1134 196.05 30.6149Z" fill="#3E3D40"/>
<path d="M226.13 36.8851C224.3 36.9318 222.479 36.6057 220.779 35.9267C219.079 35.2477 217.534 34.23 216.24 32.9354C214.945 31.6408 213.927 30.0964 213.248 28.3962C212.569 26.6959 212.243 24.8753 212.29 23.0451C212.243 21.2148 212.569 19.3942 213.248 17.694C213.927 15.9937 214.945 14.4493 216.24 13.1547C217.534 11.8602 219.079 10.8424 220.779 10.1634C222.479 9.48443 224.3 9.15837 226.13 9.20508C228.462 9.18421 230.76 9.76636 232.8 10.8951C234.774 11.9551 236.422 13.5312 237.57 15.4551L233.05 18.0751C232.399 16.8926 231.419 15.9237 230.23 15.2851C228.563 14.4275 226.672 14.1047 224.814 14.3606C222.957 14.6165 221.223 15.4386 219.85 16.7151C219.061 17.5599 218.448 18.5523 218.045 19.6353C217.641 20.7182 217.456 21.8703 217.5 23.0251C217.46 24.1734 217.647 25.3184 218.05 26.3943C218.453 27.4703 219.065 28.456 219.85 29.2951C221.227 30.5719 222.964 31.3941 224.825 31.6499C226.685 31.9057 228.579 31.5828 230.25 30.7251C231.436 30.1023 232.41 29.1418 233.05 27.9651L237.57 30.5951C236.422 32.5241 234.774 34.1067 232.8 35.1751C230.761 36.3108 228.464 36.8998 226.13 36.8851Z" fill="#3E3D40"/>
<path d="M259.18 28.865H244.84C245.473 31.2583 247.26 32.455 250.2 32.455C251.011 32.5084 251.823 32.3633 252.565 32.0322C253.307 31.7011 253.958 31.1941 254.46 30.555L258.46 32.835C257.543 34.1673 256.299 35.2415 254.847 35.9543C253.395 36.667 251.785 36.9944 250.17 36.905C248.782 36.9687 247.396 36.7488 246.096 36.2588C244.797 35.7687 243.61 35.0189 242.61 34.055C241.668 33.1148 240.929 31.992 240.437 30.7555C239.945 29.5191 239.711 28.1951 239.75 26.865C239.716 25.545 239.949 24.2316 240.433 23.0033C240.917 21.7749 241.644 20.6566 242.57 19.715C243.503 18.7537 244.629 17.9997 245.872 17.5018C247.116 17.0039 248.451 16.7733 249.79 16.825C251.079 16.7806 252.362 17.0159 253.552 17.5148C254.741 18.0137 255.808 18.7643 256.68 19.715C258.502 21.642 259.484 24.2139 259.41 26.865C259.38 27.5362 259.303 28.2045 259.18 28.865ZM244.76 25.055H254.46C254.272 23.9518 253.69 22.9545 252.821 22.2482C251.953 21.542 250.858 21.1748 249.74 21.215C248.568 21.1702 247.416 21.5225 246.47 22.215C245.583 22.9308 244.978 23.9365 244.76 25.055Z" fill="#3E3D40"/>
<path d="M273.85 16.805C275.087 16.7931 276.312 17.0488 277.441 17.5545C278.569 18.0603 279.576 18.8041 280.39 19.735C282.206 21.6506 283.191 24.2063 283.13 26.845C283.165 28.1584 282.942 29.4658 282.471 30.6927C282.001 31.9195 281.294 33.0417 280.39 33.995C279.574 34.9218 278.567 35.6603 277.438 36.1593C276.309 36.6583 275.084 36.9059 273.85 36.885C272.676 36.9466 271.504 36.7263 270.433 36.2427C269.361 35.7591 268.421 35.0261 267.69 34.105V43.955H262.79V17.335H267.69V19.585C268.421 18.6639 269.361 17.9309 270.433 17.4473C271.504 16.9637 272.676 16.7435 273.85 16.805ZM269.18 30.725C270.203 31.676 271.548 32.2046 272.945 32.2046C274.342 32.2046 275.687 31.676 276.71 30.725C277.214 30.2156 277.608 29.6088 277.87 28.9416C278.131 28.2745 278.254 27.5611 278.23 26.845C278.256 26.1346 278.134 25.4266 277.873 24.7657C277.611 24.1047 277.215 23.5052 276.71 23.005C275.7 22.0293 274.35 21.4839 272.945 21.4839C271.54 21.4839 270.19 22.0293 269.18 23.005C268.683 23.5099 268.295 24.1109 268.039 24.7712C267.782 25.4315 267.664 26.1372 267.69 26.845C267.666 27.5586 267.785 28.2697 268.041 28.9362C268.297 29.6028 268.684 30.2111 269.18 30.725Z" fill="#3E3D40"/>
<path d="M300.28 26.6151C301.113 26.9808 301.815 27.5926 302.29 28.3684C302.766 29.1441 302.992 30.0467 302.94 30.9551C302.97 31.6901 302.836 32.4225 302.547 33.099C302.258 33.7754 301.822 34.3788 301.27 34.8651C299.951 35.9284 298.281 36.4598 296.59 36.3551H286.59V17.3551H295.83C297.505 17.2539 299.159 17.7777 300.47 18.8251C301.025 19.3075 301.464 19.9086 301.755 20.5837C302.045 21.2588 302.181 21.9907 302.15 22.7251C302.178 23.4766 302.022 24.2236 301.696 24.9013C301.37 25.5791 300.884 26.1673 300.28 26.6151ZM295.38 21.3651H291.19V24.7951H295.38C296.77 24.7951 297.47 24.2251 297.47 23.0851C297.47 21.9451 296.77 21.3651 295.38 21.3651ZM291.19 32.2051H296C297.42 32.2051 298.13 31.5951 298.13 30.3851C298.141 30.1451 298.095 29.9059 297.996 29.687C297.897 29.4681 297.747 29.2756 297.56 29.1251C297.106 28.8022 296.556 28.6434 296 28.6751H291.17L291.19 32.2051Z" fill="#3E3D40"/>
<path d="M310.82 28.135L319.75 17.335H323.4V36.335H318.61V25.555L309.68 36.355H306V17.355H310.8L310.82 28.135Z" fill="#3E3D40"/>
<path d="M336.94 36.885C335.62 36.9109 334.308 36.6699 333.083 36.1765C331.858 35.683 330.745 34.9474 329.812 34.0136C328.878 33.0798 328.142 31.9671 327.649 30.7422C327.155 29.5173 326.914 28.2053 326.94 26.885C326.914 25.5647 327.155 24.2528 327.649 23.0279C328.142 21.8029 328.878 20.6902 329.812 19.7564C330.745 18.8227 331.858 18.087 333.083 17.5936C334.308 17.1002 335.62 16.8592 336.94 16.885C338.708 16.8437 340.455 17.2753 342 18.135C343.471 18.9745 344.671 20.2165 345.46 21.715L341.24 24.185C340.866 23.4035 340.263 22.7547 339.51 22.325C338.72 21.8601 337.817 21.6214 336.9 21.635C336.224 21.6156 335.551 21.7352 334.924 21.9863C334.296 22.2375 333.726 22.6148 333.25 23.095C332.771 23.5914 332.396 24.1793 332.149 24.8235C331.901 25.4678 331.786 26.1553 331.81 26.845C331.778 28.2298 332.296 29.5709 333.25 30.575C333.73 31.0488 334.301 31.4206 334.928 31.668C335.555 31.9155 336.226 32.0335 336.9 32.015C337.826 32.0308 338.74 31.8032 339.55 31.355C340.302 30.9295 340.906 30.2839 341.28 29.505L345.54 31.945C344.714 33.4506 343.489 34.6996 342 35.555C340.464 36.4469 338.716 36.9064 336.94 36.885Z" fill="#3E3D40"/>
<path d="M101.75 56.9253V51.6853H103.23V62.8053H101.75V58.3253C100.898 58.7331 99.965 58.9449 99.0201 58.9453C98.0612 58.9882 97.1217 58.6667 96.3901 58.0453C96.0625 57.7414 95.8037 57.3708 95.6312 56.9586C95.4587 56.5463 95.3765 56.1019 95.3901 55.6553V51.6553H96.8701V55.5553C96.8566 55.8245 96.9014 56.0934 97.0015 56.3437C97.1016 56.594 97.2546 56.8197 97.4501 57.0053C97.887 57.3831 98.4534 57.5767 99.0301 57.5453C99.9725 57.5519 100.904 57.3396 101.75 56.9253Z" fill="#3E3D40"/>
<path d="M113.1 59.4549H106.44C106.559 60.1064 106.916 60.6906 107.44 61.0949C107.989 61.5077 108.664 61.7195 109.35 61.6949C109.801 61.7266 110.252 61.6355 110.655 61.4313C111.059 61.227 111.399 60.9172 111.64 60.5349L112.81 61.1949C112.44 61.7768 111.921 62.25 111.308 62.5662C110.695 62.8824 110.009 63.0303 109.32 62.9949C108.752 63.0153 108.186 62.9214 107.655 62.7186C107.124 62.5159 106.64 62.2086 106.23 61.8149C105.844 61.4187 105.542 60.949 105.341 60.4336C105.14 59.9183 105.044 59.3678 105.06 58.8149C105.039 58.2622 105.131 57.711 105.33 57.1951C105.53 56.6793 105.833 56.2096 106.22 55.8149C106.61 55.4191 107.078 55.1088 107.595 54.9039C108.111 54.699 108.665 54.604 109.22 54.6249C109.748 54.6204 110.271 54.7317 110.751 54.9512C111.231 55.1706 111.658 55.4928 112 55.8949C112.751 56.7093 113.15 57.7876 113.11 58.8949C113.118 59.0816 113.115 59.2686 113.1 59.4549ZM109.19 55.9349C108.525 55.9143 107.875 56.1345 107.36 56.5549C106.856 56.9861 106.529 57.5877 106.44 58.2449H111.75C111.672 57.5928 111.363 56.99 110.88 56.5449C110.41 56.1438 109.807 55.9333 109.19 55.9549V55.9349Z" fill="#3E3D40"/>
<path d="M118.46 63.0151C117.907 63.0303 117.357 62.9325 116.843 62.7278C116.329 62.5231 115.862 62.2158 115.471 61.8245C115.079 61.4333 114.772 60.9665 114.567 60.4525C114.363 59.9385 114.265 59.3881 114.28 58.8351C114.269 58.2832 114.37 57.7348 114.576 57.2227C114.782 56.7106 115.09 56.2455 115.48 55.8552C115.87 55.4648 116.336 55.1573 116.848 54.9511C117.36 54.7449 117.908 54.6442 118.46 54.6551C119.205 54.6453 119.938 54.8389 120.58 55.2151C121.194 55.5696 121.688 56.0987 122 56.7351L120.84 57.4051C120.633 56.9887 120.31 56.6413 119.91 56.4051C119.481 56.149 118.99 56.0175 118.49 56.0251C118.119 56.0165 117.75 56.084 117.406 56.2233C117.062 56.3626 116.751 56.5708 116.49 56.8351C115.969 57.3696 115.682 58.0888 115.69 58.8351C115.684 59.2048 115.752 59.5721 115.889 59.9154C116.027 60.2588 116.231 60.5714 116.49 60.8351C116.939 61.267 117.515 61.543 118.132 61.6223C118.75 61.7015 119.377 61.5798 119.92 61.2751C120.343 61.0459 120.691 60.6984 120.92 60.2751L122.1 60.9551C121.74 61.5915 121.206 62.1119 120.56 62.4551C119.925 62.832 119.198 63.0258 118.46 63.0151Z" fill="#3E3D40"/>
<path d="M122.39 54.8652H129.19V56.1952H126.49V62.8052H125.11V56.1952H122.39V54.8652Z" fill="#3E3D40"/>
<path d="M135.9 58.1652V54.8652H137.28V62.8052H135.9V59.4552H131.78V62.7752H130.4V54.8652H131.78V58.1652H135.9Z" fill="#3E3D40"/>
<path d="M140.77 57.7252H142.77C143.504 57.6946 144.22 57.949 144.77 58.4352C145.029 58.6628 145.234 58.945 145.371 59.2615C145.507 59.5779 145.572 59.9208 145.56 60.2652C145.572 60.6126 145.507 60.9582 145.37 61.2778C145.234 61.5974 145.029 61.8833 144.77 62.1152C144.214 62.5889 143.5 62.8353 142.77 62.8052H139.41V54.8652H140.8L140.77 57.7252ZM140.77 61.5252H142.77C143.135 61.535 143.491 61.4105 143.77 61.1752C143.898 61.0614 144.001 60.9211 144.07 60.764C144.139 60.6069 144.173 60.4368 144.17 60.2652C144.175 60.0925 144.14 59.921 144.069 59.7634C143.998 59.6059 143.892 59.4664 143.76 59.3552C143.485 59.1121 143.127 58.9833 142.76 58.9952H140.76L140.77 61.5252ZM146.54 62.8052V54.8652H147.92V62.8052H146.54Z" fill="#3E3D40"/>
<path d="M151.4 60.4551L155.81 54.8751H156.92V62.8151H155.55V57.2251L151.15 62.8051H150V54.8651H151.36L151.4 60.4551ZM155.63 53.6751H151.34V52.4551H155.63V53.6751Z" fill="#3E3D40"/>
<path d="M167.38 54.6552C167.914 54.6493 168.443 54.7548 168.934 54.9648C169.424 55.1749 169.866 55.4849 170.23 55.8752C170.982 56.6793 171.401 57.7392 171.401 58.8402C171.401 59.9413 170.982 61.0012 170.23 61.8052C169.866 62.1956 169.425 62.5052 168.934 62.7136C168.443 62.9221 167.913 63.0249 167.38 63.0152C166.786 63.0436 166.194 62.9131 165.667 62.6371C165.14 62.3612 164.696 61.9498 164.38 61.4452V65.9852H163V54.8652H164.39V56.2252C164.705 55.7222 165.147 55.3117 165.673 55.0359C166.198 54.76 166.787 54.6287 167.38 54.6552ZM167.21 61.6552C167.581 61.6638 167.95 61.5963 168.294 61.457C168.638 61.3177 168.95 61.1095 169.21 60.8452C169.731 60.3099 170.022 59.5921 170.02 58.8452C170.027 58.4744 169.959 58.1059 169.82 57.7621C169.681 57.4183 169.473 57.1064 169.21 56.8452C168.677 56.32 167.958 56.0256 167.21 56.0256C166.462 56.0256 165.743 56.32 165.21 56.8452C164.947 57.1064 164.739 57.4183 164.6 57.7621C164.461 58.1059 164.393 58.4744 164.4 58.8452C164.398 59.5921 164.689 60.3099 165.21 60.8452C165.469 61.114 165.779 61.3271 166.123 61.4716C166.467 61.616 166.837 61.6887 167.21 61.6852V61.6552Z" fill="#3E3D40"/>
<path d="M180.69 59.4549H174C174.116 60.1077 174.473 60.6932 175 61.0949C175.546 61.5055 176.217 61.7172 176.9 61.6949C177.351 61.7277 177.803 61.6371 178.206 61.4328C178.609 61.2284 178.95 60.918 179.19 60.5349L180.37 61.1949C179.999 61.7783 179.479 62.2525 178.864 62.5688C178.249 62.8851 177.561 63.0322 176.87 62.9949C176.304 63.0162 175.739 62.9227 175.209 62.7199C174.68 62.5171 174.197 62.2093 173.79 61.8149C173.035 60.9982 172.616 59.927 172.616 58.8149C172.616 57.7028 173.035 56.6316 173.79 55.8149C174.18 55.4191 174.648 55.1088 175.165 54.9039C175.681 54.699 176.235 54.604 176.79 54.6249C177.326 54.6078 177.859 54.7102 178.35 54.9247C178.841 55.1391 179.278 55.4603 179.63 55.8649C180.384 56.6783 180.786 57.7564 180.75 58.8649C180.743 59.0627 180.723 59.2597 180.69 59.4549ZM176.78 55.9349C176.112 55.9146 175.459 56.1346 174.94 56.5549C174.439 56.9872 174.115 57.5888 174.03 58.2449H179.34C179.262 57.5903 178.95 56.9862 178.46 56.5449C177.994 56.1445 177.394 55.9339 176.78 55.9549V55.9349Z" fill="#3E3D40"/>
<path d="M188.8 54.8652H190.27V62.8052H188.92V57.0352L186.39 61.1052H186.22L183.69 57.0352V62.8052H182.33V54.8652H183.8L186.3 58.8652L188.8 54.8652Z" fill="#3E3D40"/>
<path d="M199.1 61.8051C198.412 62.5015 197.505 62.9378 196.531 63.0399C195.558 63.1421 194.58 62.9036 193.763 62.3651C192.945 61.8266 192.34 61.0215 192.05 60.0869C191.76 59.1523 191.803 58.146 192.172 57.2396C192.54 56.3331 193.212 55.5824 194.072 55.1155C194.932 54.6486 195.927 54.4944 196.888 54.679C197.849 54.8637 198.717 55.3758 199.342 56.1281C199.968 56.8805 200.314 57.8266 200.32 58.8051C200.337 59.3626 200.237 59.9175 200.027 60.4341C199.817 60.9508 199.501 61.4178 199.1 61.8051ZM196.1 61.6651C196.472 61.6651 196.84 61.5919 197.183 61.4497C197.526 61.3075 197.838 61.099 198.101 60.8362C198.364 60.5735 198.572 60.2615 198.715 59.9181C198.857 59.5748 198.93 59.2068 198.93 58.8351C198.93 58.4635 198.857 58.0955 198.715 57.7521C198.572 57.4088 198.364 57.0968 198.101 56.834C197.838 56.5712 197.526 56.3628 197.183 56.2205C196.84 56.0783 196.472 56.0051 196.1 56.0051C195.729 55.9948 195.359 56.0614 195.015 56.2008C194.671 56.3402 194.359 56.5494 194.1 56.8151C193.591 57.3566 193.308 58.0719 193.308 58.8151C193.308 59.5584 193.591 60.2736 194.1 60.8151C194.358 61.0906 194.672 61.3087 195.02 61.4552C195.368 61.6016 195.743 61.6732 196.12 61.6651H196.1Z" fill="#3E3D40"/>
<path d="M207.46 58.1652V54.8652H208.84V62.8052H207.46V59.4552H203.34V62.7752H202V54.8652H203.38V58.1652H207.46Z" fill="#3E3D40"/>
<path d="M210.05 54.8652H216.86V56.1952H214.15V62.8052H212.77V56.1952H210.05V54.8652Z" fill="#3E3D40"/>
<path d="M225.65 63.0153C225.111 63.0324 224.575 62.9382 224.074 62.7386C223.573 62.539 223.119 62.2383 222.74 61.8553C222.357 61.4577 222.058 60.9873 221.861 60.472C221.663 59.9566 221.571 59.4069 221.59 58.8553C221.532 57.7797 221.734 56.7059 222.18 55.7253C222.779 54.829 223.632 54.1325 224.63 53.7253L224.86 53.6153L225.19 53.4653L225.54 53.3153L226.4 52.9353C227.24 52.5086 227.69 51.9986 227.75 51.4053L228.86 52.0453C228.806 52.3662 228.68 52.6706 228.49 52.9353L228.4 53.0653L228.29 53.2153L228.18 53.3253L228 53.4553C227.944 53.5033 227.883 53.5468 227.82 53.5853C227.43 53.8253 227.14 53.9853 226.98 54.0653L226.78 54.1553L226.61 54.2353L226.51 54.2853L225.99 54.5053L225.48 54.7153C224.909 54.9399 224.378 55.2575 223.91 55.6553C223.56 55.9801 223.308 56.3955 223.18 56.8553C223.51 56.4492 223.936 56.1328 224.42 55.9353C224.91 55.7264 225.437 55.6176 225.97 55.6153C226.438 55.6006 226.903 55.6817 227.338 55.8537C227.774 56.0257 228.169 56.2849 228.5 56.6153C229.185 57.333 229.563 58.2902 229.552 59.2825C229.54 60.2748 229.141 61.2233 228.44 61.9253C227.686 62.6362 226.686 63.027 225.65 63.0153ZM228.21 59.2853C228.221 58.9619 228.165 58.6398 228.046 58.3389C227.927 58.0379 227.748 57.7644 227.52 57.5353C227.277 57.3075 226.991 57.1309 226.678 57.0158C226.365 56.9007 226.033 56.8495 225.7 56.8653C225.028 56.8686 224.377 57.0975 223.85 57.5153C223.592 57.7139 223.385 57.9704 223.244 58.2639C223.103 58.5574 223.033 58.8798 223.04 59.2053C223.031 59.5383 223.093 59.8696 223.222 60.1767C223.351 60.4837 223.545 60.7595 223.79 60.9853C224.296 61.4511 224.963 61.7021 225.65 61.6853C225.986 61.6986 226.321 61.6444 226.635 61.5258C226.949 61.4073 227.237 61.2269 227.48 60.9953C227.716 60.7779 227.902 60.5132 228.028 60.2184C228.154 59.9237 228.216 59.6057 228.21 59.2853Z" fill="#3E3D40"/>
<path d="M232.44 57.7252H234.44C235.173 57.6946 235.89 57.949 236.44 58.4352C236.7 58.6623 236.907 58.9442 237.045 59.2606C237.183 59.577 237.25 59.9201 237.24 60.2652C237.25 60.6133 237.183 60.9591 237.045 61.2787C236.906 61.5982 236.7 61.8838 236.44 62.1152C235.884 62.5889 235.17 62.8353 234.44 62.8052H231.08V54.8652H232.47L232.44 57.7252ZM232.44 61.5252H234.44C234.805 61.535 235.161 61.4105 235.44 61.1752C235.568 61.0608 235.671 60.9206 235.741 60.7638C235.811 60.6069 235.847 60.4371 235.847 60.2652C235.847 60.0934 235.811 59.9235 235.741 59.7667C235.671 59.6099 235.568 59.4697 235.44 59.3552C235.165 59.1121 234.807 58.9833 234.44 58.9952H232.44V61.5252ZM238.21 62.8052V54.8652H239.59V62.8052H238.21Z" fill="#3E3D40"/>
<path d="M240.82 54.8652H247.62V56.1952H244.92V62.8052H243.53V56.1952H240.82V54.8652Z" fill="#3E3D40"/>
<path d="M255.22 61.8051C254.533 62.5015 253.625 62.9378 252.652 63.0399C251.678 63.1421 250.7 62.9036 249.883 62.3651C249.066 61.8266 248.46 61.0215 248.17 60.0869C247.88 59.1523 247.923 58.146 248.292 57.2396C248.66 56.3331 249.332 55.5824 250.192 55.1155C251.052 54.6486 252.047 54.4944 253.008 54.679C253.969 54.8637 254.837 55.3758 255.462 56.1281C256.088 56.8805 256.434 57.8266 256.44 58.8051C256.457 59.3626 256.357 59.9175 256.147 60.4341C255.937 60.9508 255.621 61.4178 255.22 61.8051ZM252.22 61.6651C252.859 61.6554 253.475 61.4249 253.964 61.0129C254.452 60.6009 254.783 60.0326 254.901 59.4044C255.018 58.7761 254.915 58.1266 254.608 57.566C254.301 57.0053 253.81 56.5679 253.218 56.328C252.625 56.0881 251.968 56.0604 251.358 56.2496C250.747 56.4388 250.221 56.8333 249.868 57.3662C249.515 57.8991 249.358 58.5376 249.422 59.1734C249.486 59.8093 249.768 60.4034 250.22 60.8551C250.484 61.1232 250.801 61.3336 251.15 61.473C251.5 61.6124 251.874 61.6778 252.25 61.6651H252.22Z" fill="#3E3D40"/>
<path d="M263.38 58.725C263.755 58.8585 264.077 59.11 264.297 59.4417C264.517 59.7735 264.623 60.1676 264.6 60.565C264.615 60.8692 264.562 61.1728 264.446 61.4545C264.33 61.7361 264.154 61.9889 263.93 62.195C263.408 62.6307 262.739 62.8491 262.06 62.805H258.06V54.865H261.72C262.381 54.8238 263.034 55.0306 263.55 55.445C263.77 55.6431 263.944 55.8876 264.058 56.1608C264.172 56.4341 264.224 56.7292 264.21 57.025C264.233 57.3563 264.169 57.6879 264.023 57.9863C263.877 58.2848 263.656 58.5396 263.38 58.725ZM261.67 56.105H259.43V58.185H261.67C262.48 58.185 262.88 57.825 262.88 57.115C262.88 56.405 262.48 56.105 261.67 56.105ZM259.43 61.555H262C262.335 61.5746 262.666 61.4715 262.93 61.265C263.041 61.1629 263.127 61.037 263.183 60.8967C263.238 60.7564 263.261 60.6054 263.25 60.455C263.255 60.3112 263.229 60.168 263.174 60.0351C263.119 59.9022 263.036 59.7828 262.93 59.685C262.656 59.5037 262.327 59.4225 262 59.455H259.45L259.43 61.555Z" fill="#3E3D40"/>
<path d="M272.8 61.8051C272.114 62.4913 271.211 62.9187 270.246 63.0147C269.28 63.1107 268.311 62.8693 267.503 62.3316C266.695 61.794 266.098 60.9932 265.814 60.0653C265.53 59.1375 265.576 58.1398 265.944 57.242C266.312 56.3441 266.98 55.6014 267.834 55.1401C268.687 54.6788 269.675 54.5274 270.627 54.7116C271.58 54.8958 272.44 55.4042 273.06 56.1504C273.68 56.8967 274.023 57.8347 274.03 58.8051C274.046 59.3633 273.944 59.9186 273.733 60.4353C273.521 60.952 273.203 61.4186 272.8 61.8051ZM269.8 61.6651C270.171 61.6742 270.54 61.607 270.884 61.4677C271.228 61.3284 271.54 61.1199 271.8 60.8551C272.309 60.3135 272.592 59.5983 272.592 58.8551C272.592 58.1118 272.309 57.3966 271.8 56.8551C271.266 56.3322 270.548 56.0395 269.8 56.0395C269.052 56.0395 268.334 56.3322 267.8 56.8551C267.398 57.2497 267.122 57.7555 267.009 58.3076C266.896 58.8597 266.951 59.433 267.166 59.954C267.381 60.475 267.746 60.92 268.215 61.2319C268.685 61.5439 269.236 61.7087 269.8 61.7051V61.6651Z" fill="#3E3D40"/>
<path d="M277 60.4551L281.41 54.8751H282.52V62.8151H281.15V57.2251L276.75 62.8051H275.64V54.8651H277V60.4551ZM281.23 53.6751H277V52.4551H281.29L281.23 53.6751Z" fill="#3E3D40"/>
<path d="M287.73 54.8652H294.54V56.1952H291.83V62.8052H290.45V56.1952H287.73V54.8652Z" fill="#3E3D40"/>
<path d="M303.06 59.4549H296.4C296.516 60.1077 296.873 60.6932 297.4 61.0949C297.947 61.5055 298.617 61.7172 299.3 61.6949C299.751 61.7277 300.203 61.6371 300.606 61.4328C301.01 61.2284 301.35 60.918 301.59 60.5349L302.77 61.1949C302.399 61.7783 301.879 62.2525 301.264 62.5688C300.649 62.8851 299.961 63.0322 299.27 62.9949C298.704 63.0162 298.139 62.9227 297.609 62.7199C297.08 62.5171 296.597 62.2093 296.19 61.8149C295.435 60.9982 295.016 59.927 295.016 58.8149C295.016 57.7028 295.435 56.6316 296.19 55.8149C296.58 55.4191 297.048 55.1088 297.565 54.9039C298.081 54.699 298.635 54.604 299.19 54.6249C299.723 54.6159 300.252 54.7252 300.738 54.9448C301.223 55.1644 301.655 55.4888 302 55.8949C302.754 56.7083 303.157 57.7864 303.12 58.8949C303.112 59.0826 303.092 59.2697 303.06 59.4549ZM299.15 55.9349C298.482 55.9146 297.829 56.1346 297.31 56.5549C296.809 56.9872 296.485 57.5888 296.4 58.2449H301.71C301.632 57.5903 301.32 56.9862 300.83 56.5449C300.364 56.1445 299.764 55.9339 299.15 55.9549V55.9349Z" fill="#3E3D40"/>
<path d="M308.19 58.7052L311.19 62.8052H309.57L307.34 59.8052L305.1 62.8052H303.48L306.53 58.7252L303.65 54.8652H305.29L307.34 57.6252L309.39 54.8652H311.02L308.19 58.7052Z" fill="#3E3D40"/>
<path d="M318 58.1652V54.8652H319.38V62.8052H318V59.4552H313.9V62.7752H312.52V54.8652H313.9V58.1652H318Z" fill="#3E3D40"/>
<path d="M322.87 60.4552L327.27 54.8752H328.38V62.8152H327V57.2252L322.59 62.8052H321.5V54.8652H322.87V60.4552Z" fill="#3E3D40"/>
<path d="M333.28 58.7052L337.21 62.8052H335.49L331.87 59.0452V62.8052H330.48V54.8652H331.87V58.3752L335.3 54.8652H337.08L333.28 58.7052Z" fill="#3E3D40"/>
<path d="M339.86 60.4552L344.27 54.8752H345.38V62.8152H344V57.2252L339.6 62.8052H338.5V54.8652H339.86V60.4552Z" fill="#3E3D40"/>
<defs>
<clipPath id="clip0_22_1167">
<path d="M0 37.5C0 16.7893 16.7893 0 37.5 0H75V37.5C75 58.2107 58.2107 75 37.5 75V75C16.7893 75 0 58.2107 0 37.5V37.5Z" fill="white"/>
</clipPath>
</defs>
</svg>
