<svg width="1317" height="878" viewBox="0 0 1317 878" fill="none" xmlns="http://www.w3.org/2000/svg">
<g clip-path="url(#clip0_14_32)">
<path d="M874.14 879.961H768.037C706.196 879.961 657.246 835.582 654.16 776.788V548.994C654.209 533.967 657.247 519.099 663.098 505.258C668.948 491.416 677.494 478.876 688.237 468.369C698.981 457.862 711.707 449.597 725.676 444.056C739.644 438.515 754.575 435.808 769.6 436.093C799.07 436.884 827.076 449.108 847.695 470.178C868.313 491.249 879.927 519.514 880.078 548.994V874.062C880.068 875.63 879.438 877.13 878.325 878.236C877.213 879.341 875.708 879.961 874.14 879.961ZM767.1 443.867C739.247 443.96 712.561 455.066 692.866 474.761C673.171 494.456 662.066 521.141 661.973 548.994V776.592C664.825 830.972 710.415 872.148 768.037 872.148H872.226V548.994C872.135 521.574 861.369 495.268 842.211 475.651C823.054 456.034 797.01 444.648 769.6 443.907L767.1 443.867Z" fill="white"/>
<path d="M554.737 225.84H330.967C315.946 225.791 301.086 222.755 287.249 216.91C273.413 211.064 260.877 202.525 250.371 191.79C239.865 181.055 231.598 168.338 226.052 154.379C220.506 140.419 217.792 125.497 218.066 110.479C218.867 81.012 231.094 53.0112 252.162 32.3947C273.231 11.7782 301.49 0.161493 330.967 -1.52588e-05L656.035 -1.52588e-05C657.599 -1.52588e-05 659.1 0.621481 660.206 1.72775C661.312 2.83402 661.934 4.33444 661.934 5.89895V112.002C661.934 173.844 617.594 222.754 558.8 225.84H554.737ZM330.967 7.81318C303.529 7.95535 277.223 18.7639 257.611 37.9529C237.999 57.142 226.62 83.2068 225.879 110.635C225.626 124.614 228.154 138.504 233.316 151.497C238.479 164.49 246.173 176.328 255.951 186.321C265.73 196.314 277.397 204.263 290.276 209.706C303.154 215.149 316.986 217.978 330.967 218.027H558.643C613.062 215.175 654.199 169.585 654.199 112.002V7.81318H330.967Z" fill="white"/>
<path d="M112.979 661.895C97.9518 661.856 83.0825 658.828 69.237 652.987C55.3914 647.146 42.8462 638.609 32.3318 627.872C21.8175 617.136 13.544 604.416 7.99331 590.451C2.44258 576.487 -0.274554 561.558 0.000131125 546.533C0.791025 517.063 13.0147 489.057 34.0853 468.438C55.1559 447.82 83.4208 436.206 112.901 436.054H437.969C439.53 436.065 441.025 436.689 442.129 437.793C443.233 438.897 443.857 440.392 443.868 441.953V548.056C443.868 609.859 399.528 658.808 340.694 661.895H112.979ZM112.979 443.867C85.5277 443.989 59.2013 454.789 39.5727 473.98C19.9441 493.171 8.55389 519.248 7.81332 546.689C7.5595 560.668 10.0874 574.558 15.2499 587.551C20.4125 600.545 28.1067 612.382 37.8851 622.375C47.6636 632.368 59.3312 640.317 72.2094 645.76C85.0877 651.203 98.9196 654.032 112.901 654.081H340.577C394.957 651.23 436.133 605.64 436.133 548.056V443.867H112.979Z" fill="white"/>
<path d="M1092.13 443.907H986.025C924.223 443.907 875.273 399.528 872.187 340.733V112.94C872.231 97.9125 875.264 83.0442 881.11 69.2005C886.956 55.3569 895.497 42.8146 906.237 32.3038C916.977 21.7931 929.7 13.524 943.667 7.97804C957.633 2.43208 972.563 -0.279913 987.588 -3.0918e-05C1017.05 0.80083 1045.05 13.0289 1065.66 34.0984C1086.27 55.1679 1097.88 83.4272 1098.03 112.901V437.969C1098.03 439.537 1097.41 441.041 1096.3 442.154C1095.2 443.266 1093.7 443.896 1092.13 443.907ZM985.088 7.81316C957.242 7.91614 930.566 19.0262 910.88 38.7201C891.193 58.414 880.093 85.0937 880 112.94V340.538C882.852 394.918 928.442 436.093 986.025 436.093H1090.21V112.94C1090.13 85.4803 1079.34 59.1356 1060.14 39.5048C1040.94 19.8739 1014.84 8.50461 987.393 7.81316H985.088Z" fill="white"/>
<path d="M112.94 225.84C97.916 225.796 83.051 222.764 69.2099 216.921C55.3689 211.078 42.8283 202.54 32.3181 191.804C21.8079 181.069 13.538 168.35 7.98967 154.388C2.44136 140.426 -0.274507 125.5 0.000133097 110.479C0.801 81.0052 13.0331 52.9987 34.11 32.3812C55.1869 11.7636 83.456 0.151386 112.94 -1.52588e-05L219.981 -1.52588e-05C221.538 0.010301 223.029 0.636348 224.127 1.7415C225.224 2.84666 225.841 4.34119 225.84 5.89895V112.002C226.067 141.325 214.884 169.588 194.654 190.817C174.424 212.045 146.733 224.577 117.432 225.762C115.948 225.762 114.463 225.762 112.94 225.762V225.84ZM112.94 7.81318C85.4804 7.896 59.1358 18.684 39.5049 37.8845C19.8741 57.0849 8.50478 83.184 7.81333 110.635C7.5595 124.614 10.0874 138.504 15.2499 151.497C20.4125 164.49 28.1067 176.328 37.8851 186.321C47.6636 196.314 59.3312 204.263 72.2094 209.706C85.0877 215.149 98.9196 217.978 112.901 218.027C114.307 218.027 115.714 218.027 117.081 218.027C144.384 216.932 170.189 205.253 189.031 185.463C207.873 165.673 218.273 139.326 218.027 112.002V7.81318H112.94Z" fill="white"/>
<path d="M767.06 225.84C752.04 225.791 737.179 222.755 723.342 216.91C709.506 211.064 696.97 202.525 686.464 191.79C675.958 181.055 667.691 168.338 662.145 154.379C656.6 140.419 653.885 125.497 654.16 110.479C654.96 81.012 667.187 53.0112 688.255 32.3947C709.324 11.7782 737.583 0.161493 767.06 -1.52588e-05L874.101 -1.52588e-05C875.662 0.0102234 877.157 0.635007 878.261 1.73906C879.365 2.84312 879.99 4.33761 880 5.89895V112.002C880.227 141.325 869.043 169.588 848.813 190.817C828.583 212.045 800.892 224.577 771.592 225.762C770.068 225.762 768.584 225.762 767.06 225.762V225.84ZM767.06 7.81318C739.623 7.95535 713.316 18.7639 693.704 37.9529C674.092 57.142 662.713 83.2068 661.973 110.635C661.719 124.614 664.247 138.504 669.409 151.497C674.572 164.49 682.266 176.328 692.045 186.321C701.823 196.314 713.491 204.263 726.369 209.706C739.247 215.149 753.079 217.978 767.06 218.027C768.467 218.027 769.873 218.027 771.279 218.027C798.559 216.913 824.336 205.237 843.166 185.467C861.996 165.697 872.402 139.382 872.187 112.08V7.81318H767.06Z" fill="white"/>
<path d="M1203.23 225.84C1201.75 225.84 1200.22 225.84 1198.74 225.84C1169.44 224.655 1141.75 212.124 1121.52 190.895C1101.29 169.666 1090.1 141.404 1090.33 112.08V5.89895C1090.34 4.36412 1090.94 2.89249 1092.01 1.79272C1093.09 0.692938 1094.54 0.0504455 1096.07 -1.52588e-05L1204.13 -1.52588e-05C1233.43 0.422699 1261.43 12.155 1282.29 32.7442C1303.14 53.3335 1315.22 81.1858 1316.02 110.479C1316.29 125.487 1313.58 140.4 1308.04 154.352C1302.5 168.303 1294.25 181.015 1283.75 191.749C1273.26 202.482 1260.74 211.023 1246.91 216.876C1233.09 222.728 1218.24 225.776 1203.23 225.84ZM1097.99 7.81318V112.002C1097.77 139.303 1108.18 165.619 1127.01 185.389C1145.84 205.159 1171.62 216.835 1198.9 217.949C1200.3 217.949 1201.67 217.949 1203.08 217.949C1217.06 217.9 1230.89 215.071 1243.77 209.628C1256.65 204.185 1268.31 196.235 1278.09 186.242C1287.87 176.25 1295.56 164.412 1300.73 151.419C1305.89 138.426 1308.42 124.536 1308.16 110.557C1307.4 83.1692 1296.04 57.1471 1276.46 37.9789C1256.89 18.8108 1230.63 7.99511 1203.23 7.81318H1200.46H1196.55H1097.99Z" fill="white"/>
<path d="M112.94 443.907H108.447C79.1263 442.711 51.4191 430.162 31.1818 408.911C10.9444 387.66 -0.237266 359.374 3.92185e-05 330.029V223.926C0.0102778 222.365 0.635061 220.87 1.73912 219.766C2.84318 218.662 4.33766 218.037 5.899 218.027H113.955C143.259 218.44 171.267 230.169 192.121 250.761C212.974 271.352 225.057 299.21 225.84 328.506C226.12 343.527 223.41 358.454 217.866 372.418C212.322 386.382 204.057 399.104 193.55 409.843C183.044 420.582 170.506 429.124 156.667 434.972C142.828 440.82 127.964 443.857 112.94 443.907ZM7.81323 225.84V330.029C7.65623 357.317 18.081 383.604 36.8975 403.368C55.714 423.131 81.4578 434.833 108.721 436.015H112.94C126.924 435.966 140.759 433.136 153.64 427.69C166.521 422.245 178.191 414.292 187.97 404.295C197.749 394.298 205.442 382.456 210.602 369.458C215.762 356.46 218.286 342.566 218.027 328.584C217.287 301.156 205.908 275.091 186.296 255.902C166.684 236.713 140.377 225.904 112.94 225.762H110.166H106.259L7.81323 225.84Z" fill="white"/>
<path d="M985.127 661.895C970.106 661.845 955.245 658.81 941.409 652.964C927.572 647.118 915.036 638.58 904.53 627.845C894.024 617.11 885.758 604.392 880.212 590.433C874.666 576.474 871.951 561.551 872.226 546.533C873.027 517.066 885.253 489.065 906.322 468.449C927.39 447.832 955.65 436.216 985.127 436.054H1092.17C1093.73 436.065 1095.22 436.689 1096.33 437.793C1097.43 438.897 1098.06 440.392 1098.07 441.953V548.056C1098.28 577.377 1087.1 605.634 1066.87 626.861C1046.64 648.087 1018.96 660.621 989.658 661.817C988.174 661.817 986.65 661.817 985.166 661.817L985.127 661.895ZM985.127 443.867C957.689 444.01 931.382 454.818 911.77 474.007C892.159 493.196 880.779 519.261 880.039 546.689C879.785 560.668 882.313 574.558 887.476 587.551C892.638 600.545 900.332 612.382 910.111 622.375C919.889 632.368 931.557 640.317 944.435 645.76C957.313 651.203 971.145 654.032 985.127 654.081C986.533 654.081 987.939 654.081 989.307 654.081C1016.59 652.977 1042.37 641.304 1061.2 621.532C1080.04 601.76 1090.44 575.439 1090.21 548.135V443.867H985.127Z" fill="white"/>
<path d="M985.127 879.961C970.103 879.912 955.239 876.875 941.399 871.027C927.56 865.179 915.023 856.637 904.516 845.897C894.009 835.158 885.744 822.436 880.2 808.472C874.657 794.509 871.946 779.581 872.226 764.56C873.027 735.097 885.255 707.101 906.324 686.49C927.394 665.88 955.653 654.272 985.127 654.121H1092.17C1093.73 654.121 1095.22 654.737 1096.32 655.835C1097.43 656.932 1098.06 658.423 1098.07 659.981V766.084C1098.28 795.408 1087.1 823.669 1066.87 844.902C1046.64 866.135 1018.96 878.678 989.658 879.883H985.166L985.127 879.961ZM985.127 661.934C957.681 662.026 931.351 672.814 911.73 692.005C892.109 711.196 880.74 737.279 880.039 764.716C879.78 778.699 882.304 792.593 887.464 805.591C892.624 818.588 900.318 830.43 910.097 840.427C919.876 850.425 931.545 858.377 944.426 863.823C957.307 869.269 971.142 872.098 985.127 872.148H989.307C1016.59 871.024 1042.37 859.339 1061.2 839.563C1080.02 819.787 1090.43 793.467 1090.21 766.162V661.934H985.127Z" fill="white"/>
<path d="M549.033 661.895C534.016 661.84 519.16 658.801 505.328 652.953C491.496 647.105 478.964 638.565 468.462 627.831C457.96 617.096 449.697 604.381 444.154 590.424C438.611 576.467 435.897 561.548 436.172 546.533C436.97 516.758 449.437 488.49 470.886 467.823C492.335 447.156 521.047 435.746 550.83 436.054H656.308C657.083 436.054 657.85 436.207 658.566 436.503C659.282 436.8 659.932 437.234 660.48 437.782C661.027 438.33 661.462 438.98 661.758 439.696C662.055 440.411 662.207 441.179 662.207 441.953V548.056C662.424 577.377 651.238 605.634 631.01 626.86C610.782 648.087 583.096 660.621 553.799 661.817C552.315 661.817 550.83 661.817 549.307 661.817L549.033 661.895ZM549.033 443.867C521.581 443.96 495.246 454.753 475.623 473.952C456.001 493.152 444.637 519.245 443.946 546.689C443.692 560.665 446.219 574.552 451.379 587.542C456.539 600.533 464.23 612.369 474.004 622.361C483.778 632.353 495.441 640.303 508.315 645.749C521.189 651.194 535.016 654.027 548.994 654.081C550.401 654.081 551.807 654.081 553.174 654.081C580.457 652.977 606.24 641.304 625.072 621.532C643.904 601.76 654.307 575.439 654.082 548.135V443.867H548.994H549.033Z" fill="white"/>
<path d="M112.979 879.961C97.9484 879.922 83.0759 876.893 69.2277 871.049C55.3795 865.206 42.8326 856.665 32.3177 845.925C21.8028 835.185 13.5302 822.459 7.98182 808.49C2.43344 794.521 -0.27981 779.588 0.000119666 764.56C0.800981 735.097 13.029 707.101 34.0985 686.49C55.1681 665.88 83.4273 654.272 112.901 654.121H655.918C656.691 654.115 657.457 654.263 658.172 654.555C658.888 654.848 659.538 655.278 660.087 655.823C660.635 656.368 661.07 657.015 661.367 657.729C661.664 658.442 661.817 659.208 661.817 659.981V766.084C662.034 795.408 650.849 823.669 630.622 844.902C610.395 866.135 582.709 878.678 553.409 879.883L112.979 879.961ZM112.979 661.934C85.5193 662.006 59.1704 672.784 39.5323 691.978C19.8941 711.171 8.51497 737.266 7.81331 764.716C7.55425 778.699 10.0782 792.593 15.2384 805.591C20.3986 818.588 28.092 830.43 37.871 840.427C47.65 850.425 59.3194 858.377 72.2002 863.823C85.081 869.269 98.9162 872.098 112.901 872.148H553.252C580.521 871.004 606.28 859.311 625.092 839.537C643.904 819.763 654.298 793.454 654.082 766.162V661.934H112.979Z" fill="white"/>
<path d="M1203.23 880C1173.31 879.897 1144.65 867.964 1123.5 846.805C1102.35 825.645 1090.42 796.978 1090.33 767.06C1090.33 722.134 1090.33 327.92 1090.33 326.474C1091.53 297.187 1104.05 269.509 1125.26 249.277C1146.47 229.045 1174.7 217.841 1204.01 218.027H1310.12C1311.68 218.027 1313.18 218.649 1314.29 219.755C1315.39 220.861 1316.02 222.362 1316.02 223.926V766.943C1315.86 796.417 1304.26 824.676 1283.65 845.745C1263.04 866.815 1235.04 879.043 1205.58 879.844L1203.23 880ZM1204.17 225.84C1176.87 225.635 1150.56 236.045 1130.79 254.872C1111.03 273.7 1099.35 299.472 1098.22 326.748C1098.22 330.654 1098.22 762.685 1098.22 767.06C1098.27 781.042 1101.1 794.873 1106.54 807.752C1111.99 820.63 1119.94 832.297 1129.93 842.076C1139.92 851.854 1151.76 859.549 1164.75 864.711C1177.75 869.874 1191.64 872.402 1205.61 872.148C1233.06 871.457 1259.15 860.093 1278.35 840.47C1297.55 820.848 1308.34 794.513 1308.44 767.06V225.84H1204.17Z" fill="white"/>
<path d="M330.967 443.907C315.943 443.857 301.079 440.82 287.24 434.972C273.401 429.124 260.863 420.582 250.356 409.843C239.85 399.104 231.584 386.382 226.041 372.418C220.497 358.454 217.786 343.527 218.066 328.506C218.867 299.039 231.094 271.038 252.162 250.422C273.231 229.805 301.49 218.189 330.967 218.027H873.984C875.545 218.037 877.04 218.662 878.144 219.766C879.248 220.87 879.873 222.365 879.883 223.926V330.029C880.1 359.354 868.915 387.615 848.688 408.848C828.461 430.081 800.775 442.623 771.475 443.828L330.967 443.907ZM330.967 225.84C303.529 225.983 277.223 236.791 257.611 255.98C237.999 275.169 226.62 301.234 225.879 328.662C225.62 342.644 228.144 356.538 233.305 369.536C238.465 382.534 246.158 394.376 255.937 404.373C265.716 414.37 277.386 422.323 290.266 427.769C303.147 433.214 316.982 436.044 330.967 436.093H771.358C798.627 434.949 824.385 423.257 843.197 403.483C862.009 383.708 872.403 357.4 872.187 330.107V225.84H330.967Z" fill="white"/>
</g>
<defs>
<clipPath id="clip0_14_32">
<rect width="1316.02" height="880" fill="white"/>
</clipPath>
</defs>
</svg>
