<svg width="1122" height="749" viewBox="0 0 1122 749" fill="none" xmlns="http://www.w3.org/2000/svg">
<path d="M747.37 745.599V467.721C747.37 443.002 737.55 419.295 720.071 401.816C702.591 384.336 678.884 374.517 654.165 374.517C629.445 374.517 605.738 384.336 588.259 401.816C570.78 419.295 560.96 443.002 560.96 467.721V662.279C563.565 711.77 605.208 747.302 654.966 747.302H745.666C746.118 747.302 746.551 747.123 746.871 746.804C747.19 746.484 747.37 746.051 747.37 745.599Z" fill="#FEC900"/>
<path d="M559.223 1.76426H281.345C268.959 1.52977 256.651 3.76684 245.139 8.34468C233.628 12.9225 223.145 19.7493 214.302 28.4258C205.46 37.1024 198.436 47.4546 193.641 58.8774C188.846 70.3001 186.376 82.5641 186.376 94.9524C186.376 107.341 188.846 119.605 193.641 131.027C198.436 142.45 205.46 152.802 214.302 161.479C223.145 170.156 233.628 176.982 245.139 181.56C256.651 186.138 268.959 188.375 281.345 188.141H475.97C525.495 185.569 560.993 143.892 560.993 94.1676V3.46739C560.994 3.238 560.947 3.01094 560.858 2.79983C560.768 2.58871 560.636 2.39791 560.471 2.23885C560.306 2.0798 560.11 1.95577 559.896 1.87422C559.681 1.79266 559.453 1.75526 559.223 1.76426Z" fill="#FEC900"/>
<path d="M372.88 374.517H95.0026C82.6165 374.282 70.3079 376.519 58.7965 381.097C47.285 385.675 36.8017 392.502 27.9593 401.178C19.117 409.855 12.093 420.207 7.29812 431.63C2.50321 443.052 0.0335693 455.316 0.0335693 467.705C0.0335693 480.093 2.50321 492.357 7.29812 503.78C12.093 515.203 19.117 525.555 27.9593 534.231C36.8017 542.908 47.285 549.735 58.7965 554.313C70.3079 558.89 82.6165 561.127 95.0026 560.893H289.561C339.052 558.322 374.584 516.645 374.584 466.92V376.22C374.584 375.996 374.54 375.775 374.454 375.568C374.368 375.361 374.243 375.174 374.085 375.016C373.927 374.857 373.739 374.732 373.532 374.646C373.326 374.561 373.104 374.517 372.88 374.517Z" fill="#FEC900"/>
<path d="M933.712 372.847V94.969C933.946 82.5829 931.709 70.2744 927.131 58.7629C922.554 47.2515 915.727 36.7681 907.05 27.9258C898.374 19.0834 888.021 12.0595 876.599 7.26455C865.176 2.46964 852.912 0 840.524 0C828.135 0 815.871 2.46964 804.449 7.26455C793.026 12.0595 782.674 19.0834 773.997 27.9258C765.321 36.7681 758.494 47.2515 753.916 58.7629C749.338 70.2744 747.101 82.5829 747.336 94.969V289.527C749.907 339.051 791.584 374.55 841.308 374.55H932.009C932.46 374.55 932.894 374.371 933.213 374.051C933.532 373.732 933.712 373.299 933.712 372.847Z" fill="#FEC900"/>
<path d="M97.4068 1.76426H94.969C82.5829 1.52977 70.2744 3.76684 58.7629 8.34468C47.2515 12.9225 36.7681 19.7493 27.9258 28.4258C19.0834 37.1024 12.0595 47.4546 7.26455 58.8774C2.46964 70.3001 0 82.5641 0 94.9524C0 107.341 2.46964 119.605 7.26455 131.027C12.0595 142.45 19.0834 152.802 27.9258 161.479C36.7681 170.156 47.2515 176.982 58.7629 181.56C70.2744 186.138 82.5829 188.375 94.969 188.141C96.2046 188.141 97.4402 188.141 98.6758 188.141C122.849 187.095 145.676 176.72 162.359 159.196C179.043 141.672 188.284 118.363 188.14 94.1676V3.46739C188.14 3.24373 188.096 3.02226 188.011 2.81563C187.925 2.609 187.8 2.42124 187.642 2.26309C187.483 2.10494 187.296 1.97949 187.089 1.8939C186.882 1.80831 186.661 1.76426 186.437 1.76426H97.4068Z" fill="#FEC900"/>
<path d="M656.569 1.76426H654.131C641.745 1.52977 629.436 3.76684 617.925 8.34468C606.413 12.9225 595.93 19.7493 587.088 28.4258C578.245 37.1024 571.221 47.4546 566.426 58.8774C561.632 70.3001 559.162 82.5641 559.162 94.9524C559.162 107.341 561.632 119.605 566.426 131.027C571.221 142.45 578.245 152.802 587.088 161.479C595.93 170.156 606.413 176.982 617.925 181.56C629.436 186.138 641.745 188.375 654.131 188.141C655.4 188.141 656.635 188.141 657.871 188.141C682.019 187.055 704.812 176.677 721.485 159.176C738.158 141.675 747.42 118.406 747.336 94.2344V3.46739C747.336 3.01569 747.156 2.58249 746.837 2.26309C746.517 1.94369 746.084 1.76426 745.633 1.76426H656.569Z" fill="#FEC900"/>
<path d="M1024.41 1.76426H1026.98C1039.37 1.52977 1051.68 3.76684 1063.19 8.34468C1074.7 12.9225 1085.19 19.7493 1094.03 28.4258C1102.87 37.1024 1109.89 47.4546 1114.69 58.8774C1119.48 70.3001 1121.95 82.5641 1121.95 94.9524C1121.95 107.341 1119.48 119.605 1114.69 131.027C1109.89 142.45 1102.87 152.802 1094.03 161.479C1085.19 170.156 1074.7 176.982 1063.19 181.56C1051.68 186.138 1039.37 188.375 1026.98 188.141C1025.75 188.141 1024.51 188.141 1023.28 188.141C999.116 187.096 976.299 176.73 959.617 159.22C942.935 141.71 933.687 118.418 933.813 94.2344V3.46739C933.813 3.01569 933.992 2.58249 934.312 2.26309C934.631 1.94369 935.064 1.76426 935.516 1.76426H1024.41Z" fill="#FEC900"/>
<path d="M92.498 188.14H94.9692C107.209 188.14 119.329 190.551 130.637 195.235C141.945 199.919 152.22 206.784 160.875 215.439C169.53 224.094 176.395 234.369 181.079 245.677C185.763 256.985 188.174 269.105 188.174 281.345C188.174 293.585 185.763 305.705 181.079 317.013C176.395 328.321 169.53 338.596 160.875 347.251C152.22 355.906 141.945 362.771 130.637 367.455C119.329 372.139 107.209 374.55 94.9692 374.55H91.2624C67.0945 373.464 44.2832 363.073 27.6019 345.551C10.9207 328.03 1.6624 304.736 1.76438 280.544V189.843C1.76438 189.392 1.94382 188.958 2.26322 188.639C2.58262 188.32 3.01582 188.14 3.46752 188.14H92.498Z" fill="#FEC900"/>
<path d="M843.012 374.517H840.541C828.155 374.282 815.846 376.519 804.335 381.097C792.823 385.675 782.34 392.502 773.498 401.178C764.655 409.855 757.631 420.207 752.837 431.63C748.042 443.052 745.572 455.316 745.572 467.705C745.572 480.093 748.042 492.357 752.837 503.78C757.631 515.203 764.655 525.555 773.498 534.231C782.34 542.908 792.823 549.735 804.335 554.313C815.846 558.89 828.155 561.127 840.541 560.893C841.777 560.893 843.012 560.893 844.248 560.893C868.409 559.848 891.227 549.483 907.908 531.973C924.59 514.463 933.839 491.171 933.712 466.987V376.22C933.712 375.768 933.533 375.335 933.214 375.016C932.894 374.696 932.461 374.517 932.009 374.517H843.012Z" fill="#FEC900"/>
<path d="M843.012 560.893H840.541C815.822 560.893 792.115 570.713 774.635 588.192C757.156 605.671 747.336 629.378 747.336 654.098C747.336 678.817 757.156 702.524 774.635 720.003C792.115 737.483 815.822 747.302 840.541 747.302H844.248C868.398 746.208 891.191 735.823 907.864 718.317C924.536 700.811 933.798 677.538 933.712 653.363V562.596C933.712 562.144 933.533 561.711 933.214 561.392C932.894 561.072 932.461 560.893 932.009 560.893H843.012Z" fill="#FEC900"/>
<path d="M470.226 374.517H467.788C455.402 374.282 443.093 376.519 431.582 381.097C420.07 385.675 409.587 392.502 400.745 401.178C391.902 409.855 384.878 420.207 380.083 431.63C375.288 443.052 372.819 455.316 372.819 467.705C372.819 480.093 375.288 492.357 380.083 503.78C384.878 515.203 391.902 525.555 400.745 534.231C409.587 542.908 420.07 549.735 431.582 554.313C443.093 558.89 455.402 561.127 467.788 560.893C469.023 560.893 470.259 560.893 471.495 560.893C495.656 559.848 518.473 549.483 535.155 531.973C551.837 514.463 561.085 491.171 560.959 466.987V376.22C560.959 375.768 560.78 375.335 560.46 375.016C560.141 374.696 559.708 374.517 559.256 374.517H470.226Z" fill="#FEC900"/>
<path d="M559.257 560.893H95.0695C70.35 560.893 46.643 570.713 29.1637 588.192C11.6844 605.671 1.86462 629.378 1.86462 654.098C1.86462 678.817 11.6844 702.524 29.1637 720.004C46.643 737.483 70.35 747.303 95.0695 747.303H471.562C495.713 746.209 518.506 735.823 535.178 718.317C551.85 700.811 561.112 677.538 561.027 653.363V562.596C561.027 562.367 560.981 562.14 560.891 561.928C560.801 561.717 560.67 561.527 560.505 561.368C560.339 561.208 560.144 561.084 559.929 561.003C559.715 560.921 559.486 560.884 559.257 560.893Z" fill="#FEC900"/>
<path d="M1120.05 189.844V654.031C1120.29 666.417 1118.05 678.726 1113.47 690.237C1108.9 701.749 1102.07 712.232 1093.39 721.074C1084.72 729.917 1074.36 736.941 1062.94 741.736C1051.52 746.53 1039.25 749 1026.87 749C1014.48 749 1002.21 746.53 990.792 741.736C979.369 736.941 969.017 729.917 960.34 721.074C951.664 712.232 944.837 701.749 940.259 690.237C935.681 678.726 933.444 666.417 933.679 654.031C933.679 654.031 933.679 278.741 933.679 277.505C934.79 253.364 945.188 230.586 962.701 213.932C980.213 197.278 1003.48 188.037 1027.65 188.141H1118.35C1118.8 188.141 1119.24 188.32 1119.56 188.639C1119.88 188.959 1120.05 189.392 1120.05 189.844Z" fill="#FEC900"/>
<path d="M745.633 188.14H281.445C256.726 188.14 233.019 197.96 215.54 215.439C198.06 232.919 188.24 256.626 188.24 281.345C188.24 306.065 198.06 329.772 215.54 347.251C233.019 364.73 256.726 374.55 281.445 374.55H657.971C682.119 373.448 704.907 363.06 721.578 345.555C738.249 328.051 747.513 304.783 747.436 280.611V189.844C747.436 189.611 747.389 189.381 747.298 189.168C747.206 188.954 747.071 188.762 746.902 188.602C746.733 188.443 746.534 188.32 746.315 188.24C746.097 188.161 745.865 188.127 745.633 188.14Z" fill="#FEC900"/>
</svg>
