<svg width="231" height="240" viewBox="0 0 231 240" fill="none" xmlns="http://www.w3.org/2000/svg">
<path d="M186.602 7.65184C183.729 4.94595 180.717 2.39187 177.578 0L148.288 38.2592C150.085 39.6365 151.844 41.1669 153.603 42.812C171.679 60.6615 182.195 84.7876 182.97 110.187C182.97 155.256 150.008 191.946 109.514 191.946C91.9003 191.823 74.997 184.982 62.2517 172.817C57.69 168.258 54.0851 162.834 51.6489 156.861C49.2127 150.889 47.9943 144.489 48.0653 138.039C48.0653 112.826 66.1137 92.1282 88.3301 92.1282C94.6515 92.4445 100.752 94.5544 105.92 98.2114C118.118 106.399 119.227 119.369 109.132 136.738L150.697 160.88C178.61 112.788 158.344 75.5619 132.648 58.2688C119.595 49.2781 104.175 44.3527 88.3301 44.1129C39.6147 44.1129 -4.82784e-05 86.198 -4.82784e-05 137.924C-0.0568073 150.883 2.48984 163.722 7.48864 175.677C12.4874 187.632 19.8364 198.46 29.0992 207.518L29.711 208.13C51.2901 228.507 79.8044 239.913 109.476 240.038C176.469 240.038 230.959 181.808 230.959 110.225C230.675 91.0482 226.61 72.1164 218.999 54.5147C211.387 36.913 200.378 20.9877 186.602 7.65184Z" fill="#FFCC00"/>
</svg>
