<svg width="355" height="368" viewBox="0 0 355 368" fill="none" xmlns="http://www.w3.org/2000/svg">
<path d="M286.267 11.8627C281.866 7.67433 277.253 3.71487 272.445 0L227.519 58.4309C230.353 60.6094 233.072 62.9339 235.665 65.395C262.604 90.868 280.68 132.476 280.68 168.947C280.68 238.031 230.14 294.229 168.02 294.229C141.54 294.229 115.811 283.761 95.546 264.793C81.7062 251.324 73.7448 231.967 73.7448 211.455C73.7448 172.777 101.477 141.311 135.53 141.311C137.701 141.311 149.211 141.752 162.459 150.632C181.215 163.201 182.884 183.069 167.428 209.698L231.164 246.699C273.972 172.963 243 115.873 203.467 89.394C175.16 70.4437 148.743 67.6104 135.503 67.6104C60.7876 67.6104 0 132.14 0 211.481C0 252.524 16.6025 291.749 45.562 319.102C79.4555 350.63 122.846 368 167.923 368C270.68 368 354.275 278.738 354.275 169.017C354.363 111.769 328.264 51.5728 286.267 11.8627Z" fill="#FEC900"/>
</svg>
