<svg width="237" height="240" viewBox="0 0 237 240" fill="none" xmlns="http://www.w3.org/2000/svg">
<path d="M86.1666 81.4073L90.4654 87.8554C121.171 134.873 123.934 152.682 124.088 154.064C124.088 164.121 120.092 173.766 112.981 180.878C105.869 187.989 96.2239 191.985 86.1666 191.985C76.1094 191.985 66.464 187.989 59.3524 180.878C52.2409 173.766 48.2456 164.121 48.2456 154.064C48.2456 152.644 51.1243 133.99 84.1708 84.3627L86.1666 81.4073ZM86.1666 0C86.1666 0 0 106.24 0 153.833C0 176.686 9.07825 198.603 25.2376 214.762C41.397 230.922 63.3138 240 86.1666 240C109.019 240 130.936 230.922 147.096 214.762C163.255 198.603 172.333 176.686 172.333 153.833C172.333 108.39 93.7662 9.48025 86.6656 0.652487L86.1666 0Z" fill="#FFCC00"/>
<path d="M200.198 0C200.198 0 163.582 45.0984 163.582 65.2487C163.89 74.7496 167.881 83.7585 174.71 90.3705C181.54 96.9825 190.673 100.679 200.179 100.679C209.685 100.679 218.818 96.9825 225.648 90.3705C232.478 83.7585 236.468 74.7496 236.776 65.2487C236.776 45.0216 200.198 0 200.198 0Z" fill="#FFCC00"/>
</svg>
