<svg width="29" height="29" viewBox="0 0 29 29" fill="none" xmlns="http://www.w3.org/2000/svg">
<path d="M28.4821 21.3668V26.8602C28.4823 27.2536 28.3333 27.6323 28.0651 27.9201C27.797 28.2078 27.4297 28.3832 27.0373 28.4107C26.3584 28.4573 25.8038 28.4822 25.375 28.4822C11.6461 28.4822 0.517822 17.3539 0.517822 3.62503C0.517822 3.19624 0.541126 2.64162 0.589287 1.96271C0.61682 1.57034 0.792154 1.20303 1.07991 0.934876C1.36767 0.666726 1.74642 0.517706 2.13975 0.517884H7.63318C7.82588 0.517689 8.01178 0.589129 8.15476 0.718326C8.29774 0.847523 8.38759 1.02525 8.40686 1.21699C8.44259 1.57431 8.47522 1.85862 8.50629 2.07456C8.81503 4.22925 9.44776 6.32487 10.383 8.2904C10.5306 8.60112 10.4343 8.97242 10.1546 9.17128L6.80202 11.5669C8.85188 16.3433 12.6583 20.1497 17.4347 22.1995L19.8272 18.8531C19.925 18.7164 20.0676 18.6184 20.2303 18.5761C20.393 18.5338 20.5654 18.5499 20.7174 18.6216C22.6827 19.5551 24.7777 20.1863 26.9316 20.4937C27.1476 20.5248 27.4319 20.559 27.7861 20.5931C27.9776 20.6128 28.1549 20.7028 28.2838 20.8457C28.4127 20.9887 28.4839 21.1743 28.4837 21.3668H28.4821Z" fill="#FEC900"/>
</svg>
