<svg width="29" height="30" viewBox="0 0 29 30" fill="none" xmlns="http://www.w3.org/2000/svg">
<g clip-path="url(#clip0_45_2)">
<path d="M28.3824 22.9127L21.7498 16.2801C20.4414 14.9717 18.4873 14.7168 16.9127 15.4928L10.8748 9.45488V5.9375L3.62478 0.5L-0.000219769 4.125L5.43728 11.375H8.95467L14.9926 17.4129C14.2222 18.9875 14.4715 20.9416 15.7799 22.25L22.4125 28.8826C23.2394 29.7096 24.5761 29.7096 25.3974 28.8826L28.3824 25.8977C29.2037 25.0707 29.2037 23.734 28.3824 22.9127ZM18.7875 13.2441C20.3904 13.2441 21.897 13.8672 23.0299 15L24.1287 16.0988C25.0236 15.708 25.8732 15.1643 26.6095 14.4279C28.7109 12.3266 29.4246 9.36992 28.7562 6.68516C28.6316 6.17539 27.9916 5.99981 27.6178 6.37363L23.4037 10.5877L19.5578 9.94766L18.9178 6.10176L23.1318 1.8877C23.5056 1.51387 23.3244 0.873828 22.809 0.743555C20.1242 0.0808593 17.1676 0.794531 15.0719 2.89023C13.4576 4.50449 12.6986 6.63418 12.7383 8.7582L17.3885 13.4084C17.8472 13.3008 18.323 13.2441 18.7875 13.2441ZM12.9025 17.8887L9.69099 14.6772L1.05896 23.3148C-0.357056 24.7309 -0.357056 27.0248 1.05896 28.4408C2.47498 29.8568 4.76892 29.8568 6.18494 28.4408L13.1857 21.44C12.7553 20.3129 12.625 19.0838 12.9025 17.8887ZM3.62478 27.2344C2.87712 27.2344 2.26541 26.6227 2.26541 25.875C2.26541 25.1217 2.87146 24.5156 3.62478 24.5156C4.3781 24.5156 4.98416 25.1242 4.98416 25.875C4.98416 26.6258 4.3781 27.2344 3.62478 27.2344Z" fill="#FEC900"/>
</g>
<defs>
<clipPath id="clip0_45_2">
<rect width="29" height="29" fill="white" transform="translate(0 0.5)"/>
</clipPath>
</defs>
</svg>
