<svg width="29" height="29" viewBox="0 0 29 29" fill="none" xmlns="http://www.w3.org/2000/svg">
<g clip-path="url(#clip0_253_4)">
<path d="M28.4822 27C28.4822 27.3979 28.3185 27.7794 28.0271 28.0607C27.7358 28.342 27.3406 28.5 26.9286 28.5H2.07146C1.65942 28.5 1.26427 28.342 0.972914 28.0607C0.681563 27.7794 0.517884 27.3979 0.517884 27V11.235C0.517719 11.0065 0.571664 10.7809 0.675596 10.5755C0.779528 10.3701 0.930698 10.1904 1.11756 10.05L13.5461 0.717042C13.8189 0.51221 14.1545 0.401001 14.5 0.401001C14.8455 0.401001 15.1812 0.51221 15.4539 0.717042L27.8825 10.05C28.0694 10.1904 28.2205 10.3701 28.3245 10.5755C28.4284 10.7809 28.4823 11.0065 28.4822 11.235V27ZM8.23217 19.5C7.40374 19.5 6.73217 20.1716 6.73217 21V21C6.73217 21.8285 7.40374 22.5 8.23217 22.5H19.2679C20.9247 22.5 22.2679 21.1569 22.2679 19.5V19.5H8.23217Z" fill="#FEC900"/>
</g>
<defs>
<clipPath id="clip0_253_4">
<rect width="29" height="29" fill="white"/>
</clipPath>
</defs>
</svg>
