<svg width="29" height="30" viewBox="0 0 29 30" fill="none" xmlns="http://www.w3.org/2000/svg">
<g clip-path="url(#clip0_44_200)">
<path d="M0 15C0 6.99187 6.49187 0.5 14.5 0.5H29V15C29 23.0081 22.5081 29.5 14.5 29.5C6.49187 29.5 0 23.0081 0 15Z" fill="#FEC900"/>
<path d="M32.4027 22.045L29.0116 12.7302L15.7103 17.5713V8.11727C15.7287 7.46208 15.6155 6.80984 15.3775 6.19914C15.1395 5.58843 14.7814 5.03165 14.3245 4.56172C13.8676 4.09178 13.3211 3.71823 12.7173 3.46316C12.1135 3.20808 11.4647 3.07666 10.8093 3.07666C10.1538 3.07666 9.50504 3.20808 8.90125 3.46316C8.29747 3.71823 7.75097 4.09178 7.29405 4.56172C6.83713 5.03165 6.47907 5.58843 6.24105 6.19914C6.00303 6.80984 5.88988 7.46208 5.90828 8.11727V17.5713L-7.39305 12.7302L-10.7841 22.045L2.74922 26.975L-5.50612 37.9293L2.41282 43.8955L10.8073 32.7557L19.2135 43.8955L27.1247 37.9293L18.8655 26.975L32.4027 22.045Z" fill="#FCCB6C"/>
<path d="M10.8073 3.15635C12.1136 3.1696 13.3618 3.69836 14.2801 4.6275C15.1983 5.55665 15.7124 6.81093 15.7103 8.11728V17.5713L29.0116 12.7302L32.4027 22.045L18.8655 26.975L27.1247 37.9293L19.2135 43.8955L10.8073 32.7557L2.41282 43.8955L-5.50612 37.9293L2.75308 26.975L-10.7803 22.045L-7.38918 12.7302L5.91215 17.5713V8.11728C5.91002 6.81226 6.423 5.55913 7.33962 4.6302C8.25624 3.70128 9.50241 3.17163 10.8073 3.15635ZM10.8073 2.81995C9.41442 2.84022 8.08519 3.40678 7.10594 4.3976C6.1267 5.38842 5.57579 6.72421 5.57188 8.11728V17.0957L-7.28092 12.4363L-7.59412 12.3203L-7.71012 12.6374L-11.0973 21.9522L-11.2133 22.2654L-10.9001 22.3814L2.20015 27.1297L-5.78452 37.7243L-5.98558 37.9911L-5.71878 38.1922L2.20015 44.1623L2.46695 44.3634L2.66802 44.0966L10.788 33.3086L18.908 44.0966L19.1091 44.3634L19.3759 44.1623L27.3335 38.1961L27.6003 37.995L27.3992 37.7282L19.4068 27.1297L32.5187 22.3621L32.8319 22.2461L32.7159 21.9329L29.3287 12.6181L29.2127 12.301L28.8995 12.417L16.0467 17.0957V8.11728C16.0408 6.72556 15.489 5.39173 14.5099 4.40257C13.5309 3.41342 12.2028 2.84792 10.8112 2.82768L10.8073 2.81995Z" fill="#3E3D40"/>
<path d="M27.6776 23.7657L24.2866 14.4509L15.7103 17.5713H5.90831L-2.66795 14.4509L-6.05902 23.7657L2.75311 26.9751L-2.50942 33.9544L5.40951 39.9207L10.8112 32.7557L16.2091 39.9207L24.128 33.9544L18.8655 26.9751L27.6776 23.7657Z" fill="white"/>
<path d="M24.2865 14.4508L27.6776 23.7656L18.8655 26.9749L24.128 33.9542L16.2091 39.9205L10.7957 32.7556L5.38239 39.9205L-2.50948 33.9542L2.75305 26.9749L-6.05908 23.7656L-2.66801 14.4508L5.90825 17.5712H15.7103L24.2865 14.4508ZM24.4876 14.0216L24.1705 14.1376L15.6639 17.2309H5.99719L-2.50948 14.1376L-2.82655 14.0216L-2.93868 14.3348L-6.37228 23.6496L-6.48828 23.9628L-6.17121 24.0788L2.20012 27.1296L-2.77628 33.7532L-2.97735 34.02L-2.71055 34.221L5.20839 40.1873L5.47519 40.3884L5.67625 40.1216L10.8073 33.3162L15.9423 40.1216L16.1433 40.3884L16.4101 40.1873L24.3291 34.221L24.5959 34.02L24.3948 33.7532L19.4068 27.1296L27.7897 24.0788L28.1068 23.9628L27.9908 23.6496L24.5997 14.3309L24.4876 14.0177V14.0216Z" fill="#3E3D40"/>
<path d="M9.50433 17.2386H5.90833V9.60193H9.50819C9.50819 9.60193 8.38686 11.5817 8.38686 13.4183C8.44296 14.7637 8.82655 16.0751 9.50433 17.2386Z" fill="#F6A400"/>
<path d="M18.3087 8.11727H15.7103C15.7287 7.46208 15.6156 6.80984 15.3775 6.19914C15.1395 5.58843 14.7815 5.03165 14.3245 4.56172C13.8676 4.09178 13.3211 3.71823 12.7173 3.46316C12.1136 3.20808 11.4648 3.07666 10.8093 3.07666C10.1539 3.07666 9.50506 3.20808 8.90128 3.46316C8.2975 3.71823 7.75099 4.09178 7.29407 4.56172C6.83715 5.03165 6.47909 5.58843 6.24107 6.19914C6.00305 6.80984 5.8899 7.46208 5.90831 8.11727V9.60207H18.3087C18.5056 9.60207 18.6944 9.52385 18.8337 9.38462C18.9729 9.2454 19.0511 9.05656 19.0511 8.85967C19.0511 8.66277 18.9729 8.47394 18.8337 8.33471C18.6944 8.19548 18.5056 8.11727 18.3087 8.11727Z" fill="#1187C5"/>
<path d="M10.8074 3.15622C12.1136 3.16948 13.3618 3.69824 14.2801 4.62738C15.1984 5.55653 15.7124 6.81081 15.7103 8.11716H18.3087C18.5056 8.11716 18.6944 8.19537 18.8337 8.3346C18.9729 8.47383 19.0511 8.66266 19.0511 8.85956C19.0511 9.05645 18.9729 9.24529 18.8337 9.38451C18.6944 9.52374 18.5056 9.60196 18.3087 9.60196H5.9083V8.11716C5.90618 6.81147 6.4197 5.55777 7.33714 4.62873C8.25459 3.6997 9.50176 3.17049 10.8074 3.15622ZM10.8074 2.81982C9.41444 2.8401 8.08521 3.40666 7.10596 4.39748C6.12671 5.38829 5.57581 6.72409 5.5719 8.11716V9.93449H18.3087C18.5938 9.93449 18.8672 9.82124 19.0688 9.61965C19.2704 9.41806 19.3836 9.14465 19.3836 8.85956C19.3836 8.57447 19.2704 8.30105 19.0688 8.09946C18.8672 7.89788 18.5938 7.78462 18.3087 7.78462H16.0351C15.9459 6.45335 15.3591 5.20438 14.3912 4.28596C13.4233 3.36753 12.1453 2.84691 10.8112 2.82756L10.8074 2.81982Z" fill="#3E3D40"/>
<path d="M9.56617 4.10736C9.81072 3.76557 10.0964 3.45519 10.4168 3.18323C9.18638 3.29688 8.04263 3.86564 7.20946 4.7782C6.37629 5.69075 5.91368 6.8814 5.91217 8.11709V9.60189H9.51204C8.97819 8.78279 8.6985 7.82411 8.70813 6.84644C8.71776 5.86878 9.01629 4.91579 9.56617 4.10736Z" fill="#006198"/>
<path opacity="0.9" d="M8.84305 4.03394C8.84305 4.03394 7.15331 4.64874 6.50371 6.90687C6.34506 7.6183 6.28778 8.3486 6.33358 9.07607H6.95225C6.95225 9.07607 6.80531 7.14274 7.27318 6.08714C7.67759 5.31952 8.20829 4.62543 8.84305 4.03394Z" fill="white"/>
<path d="M18.8655 26.9751V16.423L17.6668 16.8599V21.6855L4.01747 21.6082V16.8831L2.75307 16.423V26.9751L-2.50946 33.9544L5.40947 39.9207L10.8112 32.7558L16.2091 39.9207L24.128 33.9544L18.8655 26.9751Z" fill="#1187C5"/>
<path d="M18.8655 16.4227V26.9748L24.128 33.9542L16.2091 39.9204L10.7958 32.7555L5.38244 39.9204L-2.50943 33.9542L2.75311 26.9748V16.4227L4.01364 16.8828V21.6079L17.663 21.6891V16.8596L18.8655 16.4227ZM2.41671 15.9432V26.8627L-2.77623 33.7531L-2.97729 34.0199L-2.71049 34.221L5.20844 40.1872L5.47524 40.3883L5.6763 40.1215L10.8074 33.3162L15.9423 40.1215L16.1434 40.3883L16.4102 40.1872L24.3291 34.221L24.5959 34.0199L24.3948 33.7531L19.2135 26.8627V15.9432L18.765 16.1095L17.5508 16.5464L17.3304 16.6276V21.3488L4.35004 21.2715V16.6315L4.12964 16.5542L2.86524 16.1095L2.41671 15.9432Z" fill="#3E3D40"/>
<path d="M-4.95315 20.7301L2.41671 23.4097V26.851L-6.05902 23.7654L-4.95315 20.7301Z" fill="#D9DADB"/>
<path d="M26.5718 20.7301L19.2019 23.4097V26.851L27.6776 23.7654L26.5718 20.7301Z" fill="#D9DADB"/>
<path d="M31.2986 19.0089L26.8876 20.6144L27.9932 23.652L32.4042 22.0465L31.2986 19.0089Z" fill="#F6A400"/>
<path d="M2.75305 23.5334L3.47612 23.7964C3.6125 23.8574 3.7345 23.9465 3.83415 24.0578C3.93381 24.1691 4.00888 24.3002 4.05449 24.4425C4.10009 24.5847 4.1152 24.735 4.09882 24.8835C4.08245 25.0321 4.03496 25.1755 3.95945 25.3044L2.75305 26.9748V23.5334Z" fill="#006198"/>
<path d="M18.8655 23.5334L18.1424 23.7964C18.0067 23.8581 17.8855 23.9477 17.7866 24.0594C17.6878 24.171 17.6135 24.3022 17.5686 24.4444C17.5238 24.5866 17.5094 24.7367 17.5263 24.8848C17.5432 25.033 17.5911 25.1759 17.6668 25.3044L18.8655 26.9748V23.5334Z" fill="#006198"/>
<path d="M16.5068 13.2908C16.3812 13.2875 16.2563 13.3102 16.1398 13.3575C16.0234 13.4047 15.918 13.4755 15.8302 13.5654C15.6139 13.8071 15.3494 14.0008 15.0537 14.134C14.758 14.2672 14.4377 14.337 14.1134 14.3387C13.9255 14.3394 13.7384 14.316 13.5566 14.2691C13.5297 14.2606 13.5006 14.2622 13.4748 14.2736C13.449 14.285 13.4283 14.3054 13.4164 14.331C13.4046 14.3566 13.4025 14.3856 13.4105 14.4127C13.4185 14.4397 13.436 14.4629 13.4599 14.4779C14.1706 14.9641 15.0116 15.2242 15.8727 15.2242C16.2312 15.2551 16.5919 15.1994 16.9244 15.0618C17.1154 14.9696 17.2692 14.8149 17.3604 14.6235C17.4517 14.432 17.4749 14.2152 17.4262 14.0088C17.3775 13.8023 17.2599 13.6187 17.0927 13.4882C16.9256 13.3576 16.7189 13.288 16.5068 13.2908Z" fill="#3E3D40"/>
<path d="M11.6928 29.6776C11.5917 29.5378 11.459 29.424 11.3054 29.3456C11.1518 29.2671 10.9818 29.2262 10.8093 29.2262C10.6368 29.2262 10.4668 29.2671 10.3132 29.3456C10.1596 29.424 10.0268 29.5378 9.92575 29.6776L3.35242 38.3776L5.39788 39.9242L10.8112 32.7593L16.2246 39.9242L18.2739 38.3776L11.6928 29.6776Z" fill="#006198"/>
<path d="M6.14417 23.5334C6.14417 24.7702 6.63546 25.9563 7.50998 26.8308C8.3845 27.7053 9.57061 28.1966 10.8074 28.1966C12.0441 28.1966 13.2302 27.7053 14.1047 26.8308C14.9793 25.9563 15.4706 24.7702 15.4706 23.5334H6.14417Z" fill="#1187C5"/>
<path d="M15.4744 23.5337C15.4744 24.7704 14.9831 25.9565 14.1086 26.831C13.2341 27.7056 12.048 28.1969 10.8112 28.1969C9.57449 28.1969 8.38838 27.7056 7.51387 26.831C6.63935 25.9565 6.14805 24.7704 6.14805 23.5337H15.4744ZM15.807 23.1973H5.81165V23.5491C5.84785 24.8505 6.39027 26.0865 7.32356 26.9942C8.25686 27.9019 9.50741 28.4097 10.8093 28.4097C12.1112 28.4097 13.3618 27.9019 14.2951 26.9942C15.2284 26.0865 15.7708 24.8505 15.807 23.5491V23.1973Z" fill="#3E3D40"/>
<path d="M10.8112 26.5651C9.82679 26.5548 8.86562 26.2646 8.03991 25.7285C7.2142 25.1924 6.55803 24.4325 6.14801 23.5375C6.14801 24.7742 6.63931 25.9603 7.51383 26.8349C8.38835 27.7094 9.57445 28.2007 10.8112 28.2007C12.048 28.2007 13.2341 27.7094 14.1086 26.8349C14.9831 25.9603 15.4744 24.7742 15.4744 23.5375C15.0632 24.4316 14.4068 25.1908 13.5814 25.7267C12.7559 26.2627 11.7953 26.5534 10.8112 26.5651Z" fill="#006198"/>
<path d="M10.8112 26.5651C11.7953 26.5534 12.7559 26.2627 13.5814 25.7267C14.4068 25.1908 15.0632 24.4316 15.4744 23.5375H6.14801C6.55803 24.4325 7.2142 25.1924 8.03991 25.7285C8.86562 26.2646 9.82679 26.5548 10.8112 26.5651Z" fill="#1187C5"/>
<path d="M15.7103 11.8756C15.8495 11.8756 15.9856 11.9169 16.1013 11.9942C16.217 12.0715 16.3072 12.1814 16.3605 12.31C16.4138 12.4386 16.4277 12.5801 16.4005 12.7166C16.3734 12.8531 16.3064 12.9785 16.2079 13.077C16.1095 13.1754 15.9841 13.2424 15.8476 13.2696C15.7111 13.2967 15.5696 13.2828 15.441 13.2295C15.3124 13.1762 15.2025 13.086 15.1252 12.9703C15.0479 12.8546 15.0066 12.7185 15.0066 12.5793" fill="#FCCB6C"/>
<path d="M15.7103 13.4493C15.4795 13.4493 15.2582 13.3576 15.0951 13.1945C14.9319 13.0313 14.8403 12.81 14.8403 12.5793H15.1728C15.1713 12.6859 15.2015 12.7906 15.2596 12.88C15.3177 12.9694 15.4011 13.0395 15.4992 13.0813C15.5972 13.1232 15.7055 13.135 15.8103 13.1151C15.9151 13.0952 16.0116 13.0447 16.0875 12.9698C16.1634 12.895 16.2154 12.7992 16.2368 12.6948C16.2581 12.5903 16.248 12.4818 16.2075 12.3832C16.1671 12.2845 16.0982 12.2001 16.0097 12.1407C15.9211 12.0813 15.8169 12.0496 15.7103 12.0496V11.717C15.941 11.717 16.1623 11.8087 16.3255 11.9719C16.4886 12.135 16.5803 12.3563 16.5803 12.587C16.5803 12.8178 16.4886 13.0391 16.3255 13.2022C16.1623 13.3654 15.941 13.457 15.7103 13.457V13.4493Z" fill="#3E3D40"/>
<path d="M12.9958 11.3961C13.0928 11.3041 13.2069 11.2322 13.3317 11.1843C13.4565 11.1365 13.5895 11.1137 13.7231 11.1173C13.8567 11.1209 13.9882 11.1508 14.1103 11.2053C14.2323 11.2597 14.3424 11.3377 14.4342 11.4348" fill="#FCCB6C"/>
<path d="M14.3144 11.547C14.158 11.3853 13.9443 11.2914 13.7195 11.2856C13.4946 11.2798 13.2764 11.3626 13.1119 11.516L12.8837 11.2763C12.9963 11.1694 13.1289 11.0858 13.2739 11.0302C13.4188 10.9747 13.5734 10.9483 13.7286 10.9526C13.8838 10.9569 14.0366 10.9918 14.1782 11.0553C14.3199 11.1188 14.4477 11.2097 14.5541 11.3227L14.3144 11.547Z" fill="#3E3D40"/>
<path d="M14.268 15.2744C14.4623 15.5209 14.7463 15.6805 15.0578 15.7181C15.3694 15.7558 15.6832 15.6686 15.9307 15.4755" fill="#FCCB6C"/>
<path d="M15.1999 15.8931C14.9949 15.8932 14.7926 15.8465 14.6084 15.7568C14.4242 15.667 14.2628 15.5364 14.1365 15.375L14.3995 15.17C14.5663 15.3813 14.8098 15.5182 15.0771 15.5507C15.3443 15.5833 15.6136 15.509 15.8263 15.344L16.0351 15.607C15.7966 15.7933 15.5025 15.8941 15.1999 15.8931Z" fill="#3E3D40"/>
<path d="M16.0273 14.4314C16.2953 14.3921 16.5514 14.2944 16.7775 14.1453C16.831 14.1091 16.8747 14.0601 16.9044 14.0027C16.9341 13.9452 16.949 13.8813 16.9476 13.8166C16.9469 13.7583 16.9329 13.7008 16.9068 13.6485C16.8807 13.5963 16.8431 13.5507 16.7968 13.515C16.7311 13.4709 16.6567 13.4415 16.5786 13.4289C16.5006 13.4162 16.4207 13.4205 16.3444 13.4416C16.1944 13.4809 16.0597 13.5644 15.9577 13.6813C15.5512 14.1103 15.0002 14.3734 14.4111 14.4198C14.3673 14.4238 14.3233 14.4238 14.2796 14.4198H14.3067C14.8755 14.5207 15.4572 14.5246 16.0273 14.4314Z" fill="#3E3D40"/>
</g>
<defs>
<clipPath id="clip0_44_200">
<path d="M0 15C0 6.99187 6.49187 0.5 14.5 0.5H29V15C29 23.0081 22.5081 29.5 14.5 29.5C6.49187 29.5 0 23.0081 0 15Z" fill="white"/>
</clipPath>
</defs>
</svg>
